<?xml version="1.0" encoding="UTF-8" standalone="no"?>
<svg
   id="_图层_1"
   data-name="图层 1"
   viewBox="0 0 851.03 260.99999"
   version="1.1"
   sodipodi:docname="ALGO_LAB_LOGO-path.svg"
   inkscape:version="1.4 (86a8ad7, 2024-10-11)"
   width="851.03003"
   height="261"
   xmlns:inkscape="http://www.inkscape.org/namespaces/inkscape"
   xmlns:sodipodi="http://sodipodi.sourceforge.net/DTD/sodipodi-0.dtd"
   xmlns="http://www.w3.org/2000/svg"
   xmlns:svg="http://www.w3.org/2000/svg">
  <sodipodi:namedview
     id="namedview29"
     pagecolor="#ffffff"
     bordercolor="#000000"
     borderopacity="0.25"
     inkscape:showpageshadow="2"
     inkscape:pageopacity="0.0"
     inkscape:pagecheckerboard="0"
     inkscape:deskcolor="#d1d1d1"
     inkscape:zoom="0.94208841"
     inkscape:cx="587.52448"
     inkscape:cy="64.219026"
     inkscape:window-width="2560"
     inkscape:window-height="1351"
     inkscape:window-x="-9"
     inkscape:window-y="-9"
     inkscape:window-maximized="1"
     inkscape:current-layer="g8" />
  <defs
     id="defs1">
    <style
       id="style1">
      .cls-1 {
        fill: #efcc4a;
      }

      .cls-2, .cls-3, .cls-4 {
        fill: #727171;
      }

      .cls-9, .cls-10 {
        fill: #db3f29;
      }

      .cls-10 {
        stroke: #db3f29;
      }

      .cls-10, .cls-11, .cls-12 {
        stroke-miterlimit: 10;
        stroke-width: 4px;
      }

      .cls-5 {
        fill: #22a3dd;
      }

      .cls-13 {
        fill: #040000;
      }

      .cls-14 {
        fill: #509fd8;
      }

      .cls-6 {
        fill: #f3a51e;
      }

      .cls-6, .cls-7, .cls-4 {
        letter-spacing: 0em;
      }

      .cls-15 {
        fill: #52a1d9;
      }

      .cls-17 {
        fill: #db3f27;
      }

      .cls-11 {
        fill: #edcf55;
        stroke: #51a2da;
      }

      .cls-18 {
        fill: #050405;
      }

      .cls-12 {
        fill: #f0cc49;
        stroke: #f0cc49;
      }

      .cls-7, .cls-19 {
        fill: #00913a;
      }

      .cls-20 {
        font-size: 32.22px;
      }

      .cls-21 {
        fill: #51a2da;
      }

      .cls-22 {
        fill: #f2cc43;
      }

      .cls-8 {
        fill: #e7311b;
      }
    </style>
  </defs>
  <g
     id="g8">
    <path
       d="m 351.36358,130.92721 q 0,1.4122 -1.0034,2.4156 -0.96624,0.96624 -2.37844,0.96624 h -10.18268 v 45.59911 q 0,1.4122 -0.96624,2.37844 -1.00341,1.0034 -2.4156,1.0034 h -0.0743 q -1.4122,0 -2.4156,-1.0034 -0.96624,-0.96624 -0.96624,-2.37844 v -45.59911 h -10.18269 q -1.37503,0 -2.37843,-0.96624 -1.00341,-1.0034 -1.00341,-2.4156 v -0.0743 q 0,-1.4122 1.00341,-2.4156 1.0034,-0.96624 2.37843,-0.96624 h 27.20338 q 1.4122,0 2.37844,0.96624 1.0034,1.0034 1.0034,2.4156 z m 8.69617,-3.45617 q 1.37503,0 2.37844,0.96624 1.0034,1.00341 1.0034,2.4156 v 15.16254 q 4.42241,-3.30751 9.99687,-3.30751 6.9495,0 11.89219,4.94269 4.94269,4.94269 4.94269,11.92935 v 20.32821 q 0,1.4122 -1.00341,2.37844 -0.96624,1.0034 -2.37843,1.0034 h -0.0743 q -1.4122,0 -2.4156,-1.0034 -1.0034,-0.96624 -1.0034,-2.37844 v -20.32821 q 0,-4.1251 -2.89872,-7.06099 -2.93589,-2.93588 -7.06099,-2.93588 -4.16227,0 -7.09815,2.93588 -2.89872,2.93589 -2.89872,7.06099 v 20.32821 q 0,1.4122 -1.0034,2.37844 -1.00341,1.0034 -2.37844,1.0034 h -0.11149 q -1.37503,0 -2.37844,-1.0034 -1.0034,-0.96624 -1.0034,-2.37844 v -49.05528 q 0,-1.41219 1.0034,-2.4156 1.00341,-0.96624 2.37844,-0.96624 z m 56.82236,22.18637 q 6.2434,0 10.25701,4.79403 l -23.52423,10.62865 q -0.14865,-0.96624 -0.14865,-1.96965 0,-5.57446 3.90212,-9.51375 3.93929,-3.93928 9.51375,-3.93928 z m 18.43289,4.90552 q -2.4156,-5.31432 -7.35829,-8.54751 -5.01701,-3.30751 -11.0746,-3.30751 -8.39885,0 -14.34495,5.94609 -5.94609,5.9461 -5.94609,14.34495 0,8.39886 5.94609,14.34496 5.9461,5.94609 14.34495,5.94609 6.54071,0 11.85503,-3.8278 5.20283,-3.71631 7.28396,-9.73673 0.59461,-1.67234 -0.40879,-3.08453 -1.04057,-1.44936 -2.78723,-1.44936 -2.45277,0 -3.27036,2.30411 -1.37503,3.97645 -4.79403,6.46638 -3.5305,2.56425 -7.87858,2.56425 -6.5407,0 -10.55431,-5.12851 3.1217,-1.4122 13.63885,-6.16907 8.47318,-3.8278 13.67601,-6.16907 1.30071,-0.59461 1.78383,-1.89532 0.48312,-1.33787 -0.11149,-2.60142 z m 64.70093,25.34523 q 0,1.4122 -1.0034,2.37844 -1.00341,1.0034 -2.37844,1.0034 h -0.11149 q -1.37503,0 -2.37844,-1.0034 -1.0034,-0.96624 -1.0034,-2.37844 v -17.68963 h -22.48367 v 17.68963 q 0,1.4122 -1.0034,2.37844 -1.0034,1.0034 -2.37844,1.0034 h -0.11149 q -1.37503,0 -2.37844,-1.0034 -1.0034,-0.96624 -1.0034,-2.37844 v -34.33869 q 0,-7.50695 5.31432,-12.82127 5.31432,-5.27716 12.7841,-5.27716 7.50695,0 12.82127,5.27716 5.31432,5.31432 5.31432,12.82127 z m -6.87517,-24.52764 v -9.81105 q 0,-4.64539 -3.27035,-7.9529 -3.30752,-3.30752 -7.99007,-3.30752 -4.64538,0 -7.9529,3.30752 -3.27035,3.30751 -3.27035,7.9529 v 9.81105 z m 22.29786,-24.52764 q 0,-1.41219 -1.0034,-2.4156 -1.00341,-0.96624 -2.37844,-0.96624 h -0.11149 q -1.37503,0 -2.37844,0.96624 -1.0034,1.00341 -1.0034,2.4156 v 39.98749 q 0,5.16567 3.64198,8.80765 3.64198,3.64198 8.80765,3.64198 h 10.81446 q 1.4122,0 2.4156,-1.0034 1.0034,-0.96624 1.0034,-2.37844 v -0.0743 q 0,-1.41219 -1.0034,-2.4156 -1.0034,-1.0034 -2.4156,-1.0034 h -10.81446 q -2.30411,0 -3.93928,-1.63518 -1.63518,-1.63517 -1.63518,-3.93928 z m 51.06207,-3.38184 q 12.26381,0 20.55118,8.99347 1.04057,1.15206 0.89192,2.67574 -0.18582,1.52369 -1.4122,2.37844 l -0.0743,0.0743 q -1.04056,0.74326 -2.30411,0.59461 -1.26354,-0.11149 -2.15546,-1.07773 -6.2434,-6.80084 -15.497,-6.80084 -8.69617,0 -14.86524,6.16907 -6.16907,6.16907 -6.16907,14.9024 0,8.73332 6.16907,14.90239 6.16907,6.13191 14.86524,6.13191 7.80424,0 13.71317,-5.05418 5.83461,-5.01701 7.06099,-12.56112 h -19.84509 q -1.4122,0 -2.4156,-1.0034 -0.96624,-0.96624 -0.96624,-2.37844 v -0.0743 q 0,-1.4122 0.96624,-2.4156 1.0034,-0.96624 2.4156,-0.96624 h 23.59856 q 1.4122,0 2.4156,0.96624 0.96624,1.0034 1.00341,2.4156 v 0.0372 q 0,11.55772 -8.17588,19.7336 -8.21308,8.17588 -19.77079,8.17588 -11.55772,0 -19.7336,-8.17588 -8.17588,-8.17588 -8.17588,-19.7336 0,-11.55772 8.17588,-19.7336 8.17588,-8.17588 19.7336,-8.17588 z m 61.80221,0 q 11.55772,0 19.77076,8.17588 8.17588,8.17588 8.17588,19.7336 0,11.55772 -8.17588,19.7336 -8.21304,8.17588 -19.77076,8.17588 -11.55772,0 -19.7336,-8.17588 -8.17588,-8.17588 -8.17588,-19.7336 0,-11.55772 8.17588,-19.7336 8.17588,-8.17588 19.7336,-8.17588 z m 0,6.83801 q -8.69616,0 -14.86523,6.16907 -6.16908,6.16908 -6.16908,14.9024 0,8.73333 6.16908,14.9024 6.16907,6.13191 14.86523,6.13191 8.73333,0 14.9024,-6.13191 6.16907,-6.16907 6.16907,-14.9024 0,-8.73332 -6.16907,-14.9024 -6.16907,-6.16907 -14.9024,-6.16907 z m 62.7313,-3.45617 q 0,-1.41219 -1.0034,-2.4156 -1.00341,-0.96624 -2.37844,-0.96624 h -0.11149 q -1.37503,0 -2.37844,0.96624 -1.0034,1.00341 -1.0034,2.4156 v 39.98749 q 0,5.16567 3.64198,8.80765 3.64198,3.64198 8.80765,3.64198 h 10.81446 q 1.4122,0 2.4156,-1.0034 1.00341,-0.96624 1.00341,-2.37844 v -0.0743 q 0,-1.41219 -1.00341,-2.4156 -1.0034,-1.0034 -2.4156,-1.0034 h -10.81446 q -2.30411,0 -3.93928,-1.63518 -1.63518,-1.63517 -1.63518,-3.93928 z m 44.1869,11.85503 q 8.39885,0 14.34495,5.94609 5.94609,5.9461 5.94609,14.34495 v 16.90921 q 0,1.4122 -1.0034,2.37844 -1.00341,1.0034 -2.37844,1.0034 h -0.11149 q -1.37503,0 -2.37844,-1.0034 -1.0034,-0.96624 -1.0034,-2.37844 v -1.7095 q -5.76028,5.09134 -13.41587,5.09134 -8.39886,0 -14.34496,-5.94609 -5.94609,-5.9461 -5.94609,-14.34496 0,-8.39885 5.94609,-14.34495 5.9461,-5.94609 14.34496,-5.94609 z m 0,6.87517 q -5.57447,0 -9.51375,3.93929 -3.90213,3.93928 -3.90213,9.47658 0,5.57447 3.90213,9.51375 3.93928,3.90213 9.51375,3.90213 5.57446,0 9.47658,-3.90213 3.93929,-3.93928 3.93929,-9.51375 0,-5.5373 -3.93929,-9.47658 -3.90212,-3.93929 -9.47658,-3.93929 z m 48.0147,0.0743 q 5.57447,0 9.47659,3.93929 3.93929,3.93928 3.93929,9.51375 0,5.5373 -3.93929,9.47658 -3.90212,3.93929 -9.47659,3.93929 -5.57446,0 -9.51375,-3.93929 -3.90212,-3.93928 -3.90212,-9.47658 0,-5.57447 3.90212,-9.51375 3.93929,-3.93929 9.51375,-3.93929 z m -16.9092,-22.18636 q -1.37503,0 -2.37844,0.96624 -1.0034,1.0034 -1.0034,2.4156 v 32.25756 q 0.0372,8.36169 5.98326,14.27062 5.90893,5.90893 14.30778,5.90893 8.39886,0 14.34496,-5.94609 5.94609,-5.9461 5.94609,-14.34496 0,-8.39885 -5.94609,-14.34495 -5.9461,-5.94609 -14.34496,-5.94609 -7.69275,0 -13.41587,5.09134 v -16.94637 q 0,-1.41219 -1.0034,-2.4156 -1.00341,-0.96624 -2.37844,-0.96624 z"
       id="text1"
       class="cls-16"
       style="font-size:76.11px;fill:#231815"
       aria-label="The ALGO Lab" />
    <g
       id="text8"
       class="cls-20"
       style="font-size:32.22px"
       transform="translate(304.52,236.09)"
       aria-label="-人工智能与大数据基础算法实验室-">
      <path
         style="font-weight:bold;font-family:'Source Han Sans CN';-inkscape-font-specification:'Source Han Sans CN Bold';fill:#727171"
         d="M 1.5787801,-7.5072603 H 10.37484 V -10.92258 H 1.5787801 Z M 25.486048,-27.322561 c -0.12888,5.4774 0.4833,19.9764007 -12.66246,27.00036099 1.2888,0.86994003 2.54538,2.12652011 3.222,3.15756011 6.73398,-3.9630601 10.1493,-9.8271004 11.9214,-15.5300401 1.83654,5.5740597 5.445181,11.92139997 12.630241,15.3367201 0.54774,-1.09548 1.64322,-2.41650009 2.83536,-3.35088013 C 32.187808,-5.7351602 30.157948,-17.817661 29.706868,-22.199581 c 0.12888,-1.99764 0.19332,-3.73752 0.22554,-5.12298 z M 45.59133,-3.2542201 V 0.64440002 H 75.040411 V -3.2542201 H 62.345731 V -19.976401 h 10.89036 v -4.05972 H 47.36343 v 4.05972 H 57.93159 V -3.2542201 Z M 97.207768,-21.619621 h 4.897442 v 5.4774 h -4.897442 z m -3.60864,-3.3831 V -12.7269 h 12.340262 v -12.275821 z m -7.76502,21.8451609 h 13.3713 V -1.2888 h -13.3713 z m 0,-2.8031401 v -1.8043201 h 13.3713 v 1.8043201 z M 82.064368,-10.7937 V 2.8675801 h 3.76974 v -1.06326 h 13.3713 v 1.03104 h 3.963062 V -10.7937 Z m 1.83654,-11.148121 v 1.38546 l -0.03222,0.70884 h -3.060901 c 0.51552,-0.61218 0.998821,-1.32102 1.482121,-2.0943 z m -2.932021,-5.6385 c -0.6444,2.4165 -1.86876,4.76856 -3.5442,6.31512 0.6444,0.28998 1.70766,0.90216 2.48094,1.41768 h -2.19096 v 3.02868 h 5.380741 c -0.83772,1.57878 -2.480941,3.18978 -5.767381,4.446361 0.83772,0.6444 1.9332,1.80432 2.44872,2.5775996 2.932021,-1.3532396 4.800781,-2.9642396 5.960701,-4.6396806 1.4499,1.03104 3.222,2.352061 4.15638,3.157561 l 2.7387,-2.448721 c -0.83772,-0.57996 -4.05972,-2.4165 -5.44518,-3.09312 h 5.34852 v -3.02868 h -4.9941 l 0.03222,-0.6444 v -1.4499 h 4.1886 v -2.99646 h -8.02278 c 0.25776,-0.6444 0.4833,-1.2888 0.6444,-1.9332 z M 119.85843,-12.5658 v 1.70766 h -4.80078 v -1.70766 z m -8.3772,-3.157561 V 2.8353601 h 3.57642 v -6.0895802 h 4.80078 V -1.09548 c 0,0.38663997 -0.0967,0.48329998 -0.51552,0.48329998 -0.41886,0.03222 -1.67544,0.06444 -2.83536,0 0.4833,0.90216003 1.06326,2.41650012 1.25658,3.41532012 1.9332,0 3.41532,-0.03222 4.5108,-0.6444 1.09548,-0.54774 1.41768,-1.51434008 1.41768,-3.1897801 v -14.692321 z m 3.57642,7.7328007 h 4.80078 v 1.8687601 h -4.80078 z m 20.84634,-17.3665807 c -1.54656,0.90216 -3.7053,1.90098 -5.89626,2.7387 v -4.63968 h -3.80196 v 9.73044 c 0,3.5442 0.90216,4.639681 4.6719,4.639681 0.77328,0 3.64086,0 4.44636,0 2.96424,0 3.99528,-1.159921 4.41414,-5.316301 -1.06326,-0.22554 -2.60982,-0.8055 -3.3831,-1.41768 -0.12888,2.86758 -0.35442,3.35088 -1.38546,3.35088 -0.67662,0 -3.02868,0 -3.5442,0 -1.22436,0 -1.41768,-0.1611 -1.41768,-1.2888 v -1.9332 c 2.83536,-0.8055 5.86404,-1.86876 8.34498,-3.0609 z m 0.22554,14.499001 c -1.54656,1.0310396 -3.76974,2.1265197 -6.05736,3.0286797 V -12.17916 h -3.83418 v 10.1815199 c 0,3.5442002 0.9666,4.6719002 4.73634,4.6719002 0.77328,0 3.73752,0 4.54302,0 3.09312,0 4.12416,-1.2888 4.54302,-5.8318202 -1.06326,-0.25776 -2.60982,-0.8377201 -3.41532,-1.4499001 -0.1611,3.3186602 -0.35442,3.89862017 -1.48212,3.89862017 -0.67662,0 -3.09312,0 -3.64086,0 -1.22436,0 -1.4499,-0.1611 -1.4499,-1.32102007 v -2.5776001 c 2.93202,-0.90216 6.1218,-2.0620801 8.60274,-3.4153201 z m -24.74496,-6.411781 c 0.83772,-0.3222 2.12652,-0.54774 9.89154,-1.22436 0.22554,0.57996 0.41886,1.1277 0.54774,1.611 l 3.51198,-1.38546 c -0.54774,-2.02986 -2.15874,-4.92966 -3.67308,-7.12062 l -3.28644,1.22436 c 0.54774,0.83772 1.09548,1.80432 1.57878,2.77092 l -4.73634,0.3222 c 1.25658,-1.57878 2.54538,-3.47976 3.47976,-5.3163 l -4.12416,-1.06326 c -0.90216,2.35206 -2.4165,4.6719 -2.93202,5.28408 -0.51552,0.67662 -1.03104,1.15992 -1.54656,1.2888 0.45108,0.99882 1.09548,2.80314 1.2888,3.60864 z m 30.99565,8.8605007 v 3.7053001 h 20.1375 V -8.4094203 Z M 148.792,-26.839261 c -0.70884,4.833 -1.96542,11.14812 -2.99646,15.014521 l 3.3831,0.03222 h 0.74106 16.04556 c -0.57996,6.1540198 -1.35324,9.3437999 -2.4165,10.1815199 -0.4833,0.3544201 -0.9666,0.3866401 -1.7721,0.3866401 -1.06326,0 -3.7053,0 -6.2829,-0.2255401 0.83772,1.09548009 1.41768,2.7387001 1.51434,3.8664002 2.31984,0.09666 4.70412,0.1611 6.02514,0.03222 1.70766,-0.1611 2.80314,-0.45108 3.8664,-1.57878007 1.51434,-1.54656006 2.38428,-5.41296023 3.222,-14.56344103 0.0644,-0.51552 0.12888,-1.67544 0.12888,-1.67544 h -19.55754 l 0.86994,-4.38192 h 17.84988 v -3.7053 h -17.17326 l 0.51552,-3.02868 z m 38.14848,-0.51552 c -0.0322,2.64204 0,5.6385 -0.3222,8.66718 h -11.79252 v 3.99528 h 11.14812 c -1.2888,5.5740607 -4.3497,10.8903609 -11.7603,14.20902098 1.1277,0.83772003 2.28762,2.22318012 2.8998,3.25422012 6.86286,-3.28644012 10.34262,-8.3127603 12.11472,-13.7257201 2.51316,6.2828998 6.25068,11.01924 12.11472,13.7257201 0.61218,-1.09548 1.90098,-2.8031401 2.86758,-3.64086013 -6.05736,-2.44872007 -9.95598,-7.53948027 -12.11472,-13.82238097 h 11.40588 v -3.99528 h -12.7269 c 0.3222,-3.02868 0.35442,-5.99292 0.38664,-8.66718 z m 31.96224,0.35442 c -0.51552,1.22436 -1.41768,2.99646 -2.12652,4.12416 l 2.44872,1.09548 c 0.83772,-0.99882 1.86876,-2.48094 2.93202,-3.93084 z m -1.611,19.3320007 c -0.57996,1.1277001 -1.35324,2.1265201 -2.22318,2.9964601 l -2.64204,-1.2888 0.9666,-1.7076601 z m -9.47268,2.9320201 c 1.48212,0.57996 3.0609,1.3532401 4.60746,2.1587401 -1.83654,1.1277 -3.99528,1.96542008 -6.34734,2.4809401 0.6444,0.67662002 1.38546,2.0298601 1.73988,2.8998001 2.8998,-0.8055 5.50962,-1.96542007 7.70058,-3.60864013 0.93438,0.57996002 1.7721,1.15992004 2.44872,1.67544006 l 2.28762,-2.51316013 c -0.6444,-0.45108 -1.4499,-0.93438 -2.28762,-1.4499 1.64322,-1.8687601 2.8998,-4.1886002 3.7053,-7.0561799 l -2.0943,-0.77328 -0.57996,0.12888 h -4.05972 l 0.51552,-1.25658 -3.41532,-0.61218 c -0.22554,0.61218 -0.4833,1.22436 -0.77328,1.86876 h -4.09194 v 3.1253397 h 2.48094 c -0.61218,1.0954801 -1.25658,2.0943001 -1.83654,2.9320201 z m -0.41886,-20.9430008 c 0.77328,1.25658 1.54656,2.93202 1.7721,4.0275 h -2.54538 v 3.02868 h 4.76856 c -1.48212,1.57878 -3.5442,2.99646 -5.44518,3.76974 0.70884,0.70884 1.54656,1.965421 1.99764,2.835361 1.611,-0.90216 3.31866,-2.223181 4.80078,-3.705301 v 2.867581 h 3.57642 v -3.479761 c 1.22436,0.9666 2.48094,2.02986 3.18978,2.70648 l 2.02986,-2.67426 c -0.57996,-0.41886 -2.35206,-1.48212 -3.83418,-2.31984 h 4.73634 v -3.02868 h -6.1218 v -5.73516 h -3.57642 v 5.73516 h -3.31866 l 2.67426,-1.15992 c -0.25776,-1.15992 -1.09548,-2.80314 -1.9332,-4.0275 z m 17.5599,-1.611 c -0.70884,5.7996 -2.15874,11.30922 -4.73634,14.660101 0.77328,0.54774 2.22318,1.80432 2.77092,2.44872 0.61218,-0.86994 1.19214,-1.83654 1.70766,-2.8998 0.61218,2.44872 1.35324,4.7363397 2.28762,6.7661998 -1.67544,2.7064801 -4.0275,4.7363401 -7.28172,6.2184602 0.6444,0.74106002 1.67544,2.3520601 1.99764,3.1253401 3.02868,-1.54656 5.38074,-3.47976012 7.18506,-5.8962602 1.4499,2.22318008 3.25422,4.0919401 5.4774,5.4774002 0.54774,-0.9666 1.67544,-2.35206009 2.51316,-3.02868012 -2.44872,-1.35324008 -4.38192,-3.38310008 -5.89626,-5.89626018 1.54656,-3.1897802 2.51316,-6.9917408 3.12534,-11.5347608 h 2.02986 v -3.57642 h -8.63496 c 0.38664,-1.73988 0.74106,-3.51198 0.99882,-5.34852 z m 5.54184,9.44046 c -0.3222,2.7387 -0.8055,5.187421 -1.54656,7.313941 -0.86994,-2.2554 -1.51434,-4.704121 -1.96542,-7.313941 z m 22.58622,10.3426207 V 2.8675801 h 3.31866 v -0.93438 h 7.79724 v 0.90216 h 3.47976 V -7.5072603 h -5.7996 V -10.60038 h 6.54066 v -3.254221 h -6.54066 v -2.86758 h 5.6385 v -9.37602 h -17.75322 v 9.89154 c 0,5.058541 -0.25776,12.1469408 -3.47976,16.91550103 0.83772,0.41885997 2.48094,1.57878007 3.12534,2.25540007 2.48094,-3.64086013 3.47976,-8.8605003 3.8664,-13.5646201 h 4.9941 v 3.0931197 z M 253.507,-22.779541 h 10.37484 v 2.77092 H 253.507 Z m 0,6.05736 h 4.76856 v 2.86758 h -4.80078 l 0.0322,-2.35206 z m 2.8998,15.594481 v -3.2220002 h 7.79724 V -1.1277 Z m -14.37012,-26.227081 v 6.08958 h -3.3831 v 3.5442 h 3.3831 v 5.767381 l -3.89862,0.93438 0.86994,3.7052997 3.02868,-0.86994 v 6.5406602 c 0,0.4188601 -0.12888,0.5477401 -0.51552,0.5477401 -0.38664,0.03222 -1.51434,0.03222 -2.70648,0 0.4833,0.99882 0.90216,2.6098201 0.99882,3.5442001 2.0943,0 3.51198,-0.12888 4.47858,-0.74106 0.99882,-0.5799601 1.2888,-1.54656009 1.2888,-3.3186602 v -7.5717002 l 3.31866,-0.9988197 -0.4833,-3.479761 -2.83536,0.773281 v -4.833001 h 3.25422 v -3.5442 h -3.25422 v -6.08958 z m 48.87773,0 v 2.4165 h -10.1493 v -2.44872 h -3.8664 v 2.44872 h -4.44636 v 3.12534 h 4.44636 v 9.666001 h -6.18624 v 3.1575597 h 6.21846 c -1.7721,1.70766 -4.12416,3.1897801 -6.50844,4.0597201 0.8055,0.70884 1.9332,2.0620801 2.48094,2.9320201 1.80432,-0.8055 3.57642,-1.9332 5.1552,-3.3186601 v 2.0620801 h 5.70294 V -1.15992 h -10.1493 v 3.1575601 h 24.68052 V -1.15992 h -10.60038 v -2.0943001 h 5.89626 v -2.3842801 c 1.54656,1.38546 3.31866,2.5453801 5.09076,3.3508801 0.54774,-0.90216 1.70766,-2.2876201 2.54538,-2.9642401 -2.28762,-0.8055 -4.54302,-2.1909601 -6.31512,-3.7375201 h 5.9607 V -12.14694 h -5.99292 v -9.666001 h 4.41414 v -3.12534 h -4.41414 v -2.4165 z m -10.1493,5.54184 h 10.1493 v 1.38546 h -10.1493 z m 0,4.09194 h 10.1493 v 1.41768 h -10.1493 z m 0,4.12416 h 10.1493 v 1.449901 h -10.1493 z m 2.99646,5.2518607 v 2.0298601 h -4.63968 c 0.86994,-0.8377201 1.64322,-1.7398801 2.28762,-2.6742601 h 9.15048 c 0.67662,0.93438 1.4499,1.83654 2.31984,2.6742601 h -5.18742 v -2.0298601 z"
         id="path3" />
      <path
         style="font-weight:bold;font-family:'Source Han Sans CN';-inkscape-font-specification:'Source Han Sans CN Bold';fill:#f3a51e"
         d="m 303.28689,-25.937101 v 3.47976 h 3.44754 c -0.8055,4.28526 -2.12652,8.24832 -4.15638,10.922581 0.51552,1.1277 1.22436,3.5764197 1.35324,4.5752397 0.45108,-0.54774 0.90216,-1.15992 1.32102,-1.80432 V 1.3532401 h 3.15756 V -1.06326 h 5.73516 v -14.853421 h -5.54184 c 0.70884,-2.0943 1.2888,-4.31748 1.73988,-6.54066 h 4.44636 v -3.47976 z m 5.12298,13.403521 h 2.54538 v 8.1194398 h -2.54538 z m 6.89508,0.99882 V 1.06326 h 13.24242 v 1.7076601 h 3.73752 V -11.47032 h -3.73752 v 8.7960599 h -2.83536 V -12.95244 h 5.86404 v -11.244781 h -3.67308 v 7.82946 h -2.19096 v -10.85814 h -3.83418 v 10.85814 h -2.4165 v -7.82946 h -3.47976 v 11.244781 h 5.89626 v 10.2781799 h -2.70648 V -11.53476 Z"
         id="path4" />
      <path
         style="font-weight:bold;font-family:'Source Han Sans CN';-inkscape-font-specification:'Source Han Sans CN Bold';fill:#22a3dd"
         d="m 343.30413,-14.241241 h 14.37012 v 1.192141 h -14.37012 z m 0,3.383101 h 14.37012 v 1.1921396 h -14.37012 z m 0,-6.669541 h 14.37012 v 1.1277 h -14.37012 z m 9.56934,-10.11708 c -0.6444,1.7721 -1.7721,3.5442 -3.09312,4.92966 v -2.54538 h -7.15284 l 0.70884,-1.38546 -3.57642,-0.99882 c -1.06326,2.44872 -2.96424,4.89744 -4.9941,6.444 0.90216,0.4833 2.4165,1.51434 3.12534,2.12652 0.93438,-0.83772 1.90098,-1.9332 2.80314,-3.15756 h 0.67662 c 0.4833,0.77328 0.99882,1.67544 1.2888,2.38428 h -3.25422 v 12.4691407 h 3.96306 v 1.9332001 h -7.70058 v 3.0931201 h 6.444 c -1.03104,0.93438 -2.86758,1.80432008 -6.02514,2.4165001 0.83772,0.70884003 1.90098,1.9976401 2.4165,2.8353601 5.09076,-1.32102 7.37838,-3.18978011 8.28054,-5.2518602 h 7.2495 v 5.1874202 h 4.0275 v -5.1874202 h 6.79842 v -3.0931201 h -6.79842 v -1.9332001 h 3.67308 V -19.847521 h -2.86758 l 2.19096,-0.9666 c -0.25776,-0.41886 -0.61218,-0.90216 -1.06326,-1.41768 h 4.76856 v -3.02868 h -8.89272 c 0.25776,-0.4833 0.4833,-0.99882 0.67662,-1.48212 z m 1.15992,22.1995808 h -6.7662 v -1.9332001 h 6.7662 z m -3.02868,-14.4023408 h -6.99174 l 2.15874,-0.77328 c -0.1611,-0.45108 -0.4833,-1.03104 -0.83772,-1.611 h 3.99528 c -0.35442,0.35442 -0.70884,0.6444 -1.09548,0.93438 0.74106,0.3222 1.9332,0.93438 2.77092,1.4499 z m 0.99882,0 c 0.67662,-0.67662 1.38546,-1.48212 2.02986,-2.38428 h 1.70766 c 0.6444,0.77328 1.32102,1.64322 1.7721,2.38428 z"
         id="path5" />
      <path
         style="font-weight:bold;font-family:'Source Han Sans CN';-inkscape-font-specification:'Source Han Sans CN Bold';fill:#00913a"
         d="m 369.37011,-24.197221 c 2.06208,0.9666 4.76856,2.51316 5.99292,3.64086 l 2.2554,-3.18978 c -1.35324,-1.06326 -4.09194,-2.48094 -6.1218,-3.28644 z m -1.90098,8.6994 c 2.06208,0.90216 4.76856,2.384281 6.02514,3.479761 l 2.15874,-3.222001 c -1.38546,-1.06326 -4.12416,-2.4165 -6.15402,-3.15756 z m 1.1277,15.401161 3.28644,2.6098201 c 1.9332,-3.15756012 3.96306,-6.8306403 5.67072,-10.2137404 l -2.83536,-2.5775997 c -1.9332,3.7375198 -4.41414,7.7650199 -6.1218,10.18152 z m 10.60038,2.2231801 c 1.09548,-0.51552 2.7387,-0.8055 13.5324,-2.1265201 0.51552,1.03104 0.90216,2.0298601 1.15992,2.8675801 L 397.33707,1.1277 c -0.86994,-2.6420401 -3.18978,-6.3795602 -5.38074,-9.1827003 l -3.12534,1.5143401 c 0.74106,1.03104 1.48212,2.15874 2.15874,3.3186601 l -7.60392,0.8055 c 1.611,-2.4487201 3.222,-5.3807402 4.54302,-8.3127599 h 8.76384 v -3.640861 h -7.76502 v -4.54302 h 6.6051 v -3.67308 h -6.6051 v -4.80078 h -3.93084 v 4.80078 h -6.37956 v 3.67308 h 6.37956 v 4.54302 h -7.70058 v 3.640861 h 6.08958 c -1.2888,3.1897797 -2.83536,6.0251398 -3.41532,6.8950799 -0.77328,1.19214 -1.35324,1.90098 -2.12652,2.0943 0.4833,1.09548008 1.15992,3.0286801 1.35324,3.8664002 z"
         id="path6" />
      <path
         style="font-weight:bold;font-family:'Source Han Sans CN';-inkscape-font-specification:'Source Han Sans CN Bold';fill:#727171"
         d="m 415.63803,-2.1265201 c 4.12416,1.22436007 8.34498,3.1897801 10.82592,4.8652202 l 2.35206,-3.06090011 C 426.20619,-1.9009801 421.63095,-3.8019601 417.44235,-4.9941002 Z m -9.60156,-15.4333809 c 1.67544,0.9666 3.73752,2.51316 4.63968,3.57642 l 2.4165,-2.77092 c -1.03104,-1.09548 -3.12534,-2.48094 -4.80078,-3.31866 z m -3.28644,4.833001 c 1.70766,0.93438 3.83418,2.38428 4.80078,3.4797596 l 2.31984,-2.8997996 c -1.06326,-1.03104 -3.222,-2.384281 -4.92966,-3.157561 z m -1.70766,-11.631421 v 7.4106 h 3.83418 v -3.80196 h 19.4931 v 3.80196 h 4.05972 v -7.4106 h -10.92258 c -0.4833,-1.09548 -1.19214,-2.38428 -1.83654,-3.41532 l -3.89862,1.19214 c 0.38664,0.67662 0.77328,1.4499 1.1277,2.22318 z m -0.28998,15.5300407 v 3.2220001 h 10.43928 c -1.86876,2.2876201 -4.96188,3.9630601 -10.18152,5.12298018 0.8055,0.83772003 1.7721,2.31984012 2.15874,3.31866012 7.12062,-1.7398801 10.7937,-4.5430202 12.75912,-8.4416403 h 12.85578 v -3.2220001 h -11.69586 c 0.8055,-2.9964597 0.99882,-6.5084407 1.1277,-10.5359407 h -4.09194 c -0.12888,4.22082 -0.22554,7.700581 -1.19214,10.5359407 z m 30.67344,3.4153201 0.6444,3.0286801 c 2.38428,-0.54774 5.21964,-1.25658 7.99056,-1.9009801 l -0.28998,-2.8353601 c -3.09312,0.6766201 -6.18624,1.3210201 -8.34498,1.7076601 z m 14.20902,-5.8318198 c 0.70884,2.4164997 1.48212,5.5740598 1.70766,7.6361399 l 3.12534,-0.8699401 c -0.3222,-2.02986 -1.09548,-5.1552002 -1.90098,-7.5394798 z m 5.57406,-0.90216 c 0.51552,2.4164996 1.09548,5.5740598 1.22436,7.6683598 l 3.09312,-0.51552 c -0.19332,-2.0620801 -0.77328,-5.1229798 -1.35324,-7.5716998 z m -17.68878,-8.667181 c -0.12888,3.64086 -0.45108,8.473861 -0.86994,11.4058806 h 8.3772 c -0.3222,5.6707203 -0.67662,8.0227803 -1.25658,8.63496037 -0.3222,0.32220001 -0.61218,0.38664002 -1.1277,0.38664002 -0.61218,0 -1.96542,-0.03222 -3.3831,-0.16110001 0.51552,0.86994003 0.90216,2.15874012 0.9666,3.09312012 1.54656,0.06444 3.0609,0.06444 3.93084,-0.03222 1.03104,-0.12888 1.7721,-0.38664 2.44872,-1.2243601 0.9666,-1.12769999 1.38546,-4.2852601 1.7721,-12.34026 0.0322,-0.41886 0.0644,-1.38546 0.0644,-1.38546 h -2.48094 c 0.38664,-3.673081 0.77328,-9.311581 0.99882,-13.757941 h -10.69704 v 3.25422 h 7.31394 c -0.19332,3.67308 -0.4833,7.66836 -0.83772,10.535941 h -2.51316 c 0.22554,-2.577601 0.45108,-5.638501 0.57996,-8.216101 z m 18.8487,-1.2888 c 1.35324,1.54656 2.8998,3.15756 4.54302,4.57524 h -8.57052 c 1.4499,-1.38546 2.80314,-2.93202 4.0275,-4.57524 z m -0.57996,-5.6385 c -1.99764,4.12416 -5.60628,7.86168 -9.37602,10.11708 0.6444,0.74106 1.7721,2.38428 2.19096,3.15756 1.09548,-0.74106 2.15874,-1.611 3.222,-2.5776 v 2.77092 h 9.9882 v -2.48094 c 0.9666,0.8055 1.96542,1.54656 2.93202,2.19096 0.35442,-1.06326 1.09548,-2.86758 1.73988,-3.83418 -2.86758,-1.51434 -6.05736,-4.1886 -8.18388,-6.66954 l 0.83772,-1.51434 z m -6.95952,25.9371009 v 3.2864402 h 16.78662 v -3.2864402 h -3.8664 c 1.32102,-2.8031401 2.77092,-6.5728802 3.93084,-9.8270999 l -3.47976,-0.74106 c -0.77328,3.2219997 -2.28762,7.6039198 -3.64086,10.5681599 z m 22.8762,-5.6707202 v 3.3186601 h 9.37602 v 2.7709201 H 464.87019 V 1.9976401 H 493.546 v -3.3831002 h -12.50136 v -2.7709201 h 9.92376 v -3.3186601 h -9.92376 v -2.4487201 h -3.96307 v 2.4487201 z m 8.82828,-19.2675607 c 0.28998,0.57996 0.57996,1.25658 0.83772,1.9332 h -12.43692 v 6.21846 h 3.60864 v 2.5776 h 4.76856 c -1.2888,1.15992 -2.44872,2.06208 -2.99646,2.4165 -0.86994,0.644401 -1.54656,1.031041 -2.28762,1.159921 0.38664,0.93438 0.93438,2.6420396 1.1277,3.3186597 1.25658,-0.4833001 3.02868,-0.6121801 17.49547,-1.7720997 0.70884,0.74106 1.32102,1.4498996 1.73988,2.0298597 l 3.02868,-2.0620797 c -1.19214,-1.48212 -3.44754,-3.511981 -5.44518,-5.090761 h 3.83418 v -2.5776 h 3.44754 v -6.21846 h -11.53476 c -0.35442,-0.9666 -0.90216,-2.0943 -1.44991,-3.02868 z m 5.67073,11.79252 1.70766,1.4499 -9.44047,0.612181 c 1.32102,-0.966601 2.64204,-2.029861 3.80196,-3.125341 H 483.88 Z m -13.46797,-4.3497 v -1.99764 h 20.58859 v 1.99764 z m 28.06363,11.7925207 h 8.79606 V -10.92258 h -8.79606 z"
         id="path7" />
    </g>
  </g>
  <g
     id="g29"
     transform="translate(0,-64)">
    <path
       class="cls-12"
       d="m 190.56,93.87 c -1.3,37.95 -2.61,75.9 -3.91,113.85"
       id="path8" />
    <path
       class="cls-11"
       d="m 190.44,93.17 c -16.51,16.05 -33.03,32.11 -49.54,48.16"
       id="path9" />
    <path
       class="cls-10"
       d="m 74.78,136.75 c 22.04,1.53 44.07,3.06 66.11,4.58"
       id="path10" />
    <path
       class="cls-12"
       d="m 74.84,137.2 c -8.83,24.2 -17.66,48.39 -26.49,72.59"
       id="path11" />
    <path
       class="cls-11"
       d="m 48.47,209.46 c 30.81,-22.71 61.62,-45.42 92.42,-68.13"
       id="path12" />
    <path
       class="cls-10"
       d="m 48.47,209.46 c 12.23,28.21 24.46,56.41 36.69,84.62"
       id="path13" />
    <path
       class="cls-10"
       d="m 85.16,294.08 c 27.7,-2.4 55.4,-4.81 83.1,-7.21"
       id="path14" />
    <path
       class="cls-11"
       d="m 168.26,286.87 c 6.13,-26.38 12.26,-52.76 18.39,-79.14"
       id="path15" />
    <path
       class="cls-10"
       d="m 238.26,154.75 c 18.09,9.07 36.17,18.13 54.26,27.2"
       id="path16" />
    <path
       class="cls-12"
       d="m 292.52,181.95 c -17.74,30.5 -35.49,60.99 -53.23,91.49"
       id="path17" />
    <g
       id="g25">
      <path
         class="cls-13"
         d="m 253.87,259.89 c 1.53,4.08 3.48,8.02 3.86,12.48 0.86,10.34 -6.48,18.75 -17.36,19.81 -8.97,0.87 -17.82,-6.84 -18.63,-16.41 -0.52,-6.19 -0.96,-12.38 -3.8,-18.05 -3.42,-6.84 -7.49,-13.39 -12.48,-19.09 -4.43,-5.05 -10.73,-7.67 -17.57,-8.51 -0.72,-0.09 -1.44,-0.21 -2.17,-0.31 -1.28,0.17 -2.55,0.07 -3.81,-0.18 -3.19,-1.19 -6.4,-2.32 -9.07,-4.56 -7.23,-6.09 -10.44,-13.7 -8.81,-23.13 0.62,-3.57 1.27,-7.14 1.99,-10.7 1.48,-7.31 -3.4,-20.93 -14.81,-23.69 -2.16,-0.52 -4.03,-0.16 -5.79,1.11 -3.42,2.48 -5.92,5.82 -8.35,9.19 -3.28,4.56 -5.81,9.54 -7.9,14.76 -5.66,14.11 -11.23,28.25 -16.69,42.43 -3.16,8.2 -4.95,16.82 -5.93,25.56 -0.31,2.76 0.82,3.58 3.51,2.65 3.76,-1.3 6.94,-3.67 10.2,-5.86 6.24,-4.18 11.61,-9.43 17.21,-14.38 6.91,-6.11 13.66,-12.38 20.66,-18.38 1.99,-1.7 2.6,-1.58 4.13,0.59 0.17,0.25 0.34,0.5 0.51,0.75 2.44,3.66 2.28,3.85 -1.04,6.87 -6.32,5.74 -12.79,11.31 -19.09,17.08 -4.07,3.72 -8.21,7.38 -12.12,11.26 -8.32,8.27 -15.12,17.68 -20.7,27.98 -0.51,0.94 -0.9,1.92 -1,2.99 -0.39,1.25 -0.14,2.64 -0.88,3.8 -2.51,13.84 -13.83,20.35 -23.76,19.92 -9.29,-0.4 -16.31,-4.84 -20.18,-13.35 -3.87,-8.52 -2.88,-16.74 2.98,-24.18 1.21,-1.53 2.65,-2.87 3.99,-4.3 1.05,-1.14 2.49,-1.73 3.68,-2.67 4.66,-2.72 8.11,-6.75 11.48,-10.81 1.69,-2.04 3.54,-3.93 5.33,-5.85 4.88,-5.23 8.34,-11.29 10.96,-17.84 6.5,-16.26 13.3,-32.41 18.92,-49.01 3.03,-8.94 4.05,-18.08 2.23,-27.43 -0.18,-2.08 -1.09,-3.88 -2.16,-5.63 -2.31,-4.06 -3.46,-8.42 -3.57,-13.08 0.52,-1.45 -0.29,-3.23 1.12,-4.45 3.22,-11.25 11.24,-17.93 22.59,-18.56 5.97,-0.34 11.22,1.84 15.94,5.38 1.62,0.93 2.8,2.34 3.99,3.73 4.85,6.41 6.06,13.65 4.28,21.29 -2.03,8.71 0.13,16.21 4.74,23.68 4.7,7.61 11.55,9.87 19.73,10.06 1.34,0.32 2.82,0.25 3.93,1.29 7.12,2.97 12.75,7.41 15.03,15.17 0.99,3.37 1.62,6.84 0.89,10.29 -2.72,12.71 0.55,23.87 8.37,33.96 1.48,1.91 2.76,3.96 4.15,5.93 0.43,0.61 0.85,1.29 1.43,1.74 5.66,4.43 8.2,3.05 10.07,-2.23 1.55,-4.4 2.27,-8.89 2.36,-13.51 0.31,-15.94 0.42,-31.89 0.24,-47.84 -0.04,-3.62 -1.26,-6.99 -2.71,-10.21 -1.91,-4.22 -6.15,-4.71 -9.87,-1.17 -3.07,2.92 -6.34,5.6 -9.45,8.46 -1.35,1.24 -2.09,0.98 -3.07,-0.25 -0.56,-0.7 -1.25,-1.3 -1.93,-1.89 -1.74,-1.52 -1.87,-2.49 -0.03,-3.77 8.57,-5.98 11.87,-14.69 12.98,-24.58 1.28,-11.35 11.69,-18.09 22.13,-14.36 6.38,2.28 11.97,9.32 9.91,19.1 -0.1,1.8 -0.5,3.52 -1.5,5.06 -4.8,9.4 -8.11,19.18 -8.09,29.89 0.03,11.79 0.22,23.58 -0.06,35.36 -0.22,9.53 2.14,18.22 6.85,26.38 0.6,1.44 1.67,2.67 1.96,4.25 z"
         id="path18" />
      <path
         class="cls-18"
         d="m 240.97,125.32 c -6.9,0.06 -12.69,-5.66 -12.78,-12.62 -0.09,-7.09 5.55,-12.8 12.69,-12.86 7.2,-0.05 12.79,5.42 12.89,12.61 0.1,6.97 -5.71,12.8 -12.8,12.86 z"
         id="path19" />
      <path
         class="cls-15"
         d="m 158.67,141.99 c 0,9.31 -7.54,16.91 -16.78,16.9 -10.02,0 -17.46,-7.59 -17.4,-17.74 0.05,-8.67 8.19,-16.28 17.37,-16.22 9.44,0.06 16.82,7.55 16.82,17.06 z"
         id="path20" />
      <path
         class="cls-22"
         d="m 186.49,223.09 c -9.25,0.12 -16.93,-7.35 -17.12,-16.65 -0.19,-9.35 7.48,-17.22 16.96,-17.39 9.28,-0.17 17.06,7.44 17.22,16.86 0.17,9.45 -7.39,17.06 -17.06,17.18 z"
         id="path21" />
      <path
         class="cls-17"
         d="m 85.77,275.98 c 9.69,-0.05 16.95,7.34 17,17.31 0.05,8.93 -7.78,16.68 -16.82,16.64 -9.53,-0.04 -17.16,-7.33 -17.21,-16.43 -0.05,-10 7.2,-17.47 17.02,-17.53 z"
         id="path22" />
      <path
         class="cls-19"
         d="m 251.28,273.37 c -0.02,6.66 -5.27,11.79 -12.03,11.75 -6.53,-0.04 -11.67,-5.31 -11.64,-11.92 0.04,-6.52 5.32,-11.7 11.93,-11.68 6.61,0.02 11.75,5.21 11.73,11.85 z"
         id="path23" />
      <path
         class="cls-9"
         d="m 238.7,167.09 c -6.3,-0.03 -11.07,-4.88 -11.05,-11.22 0.02,-6.14 5.12,-11.14 11.29,-11.09 6.12,0.05 11.09,5.12 11.08,11.32 0,6.2 -4.98,11.03 -11.32,11 z"
         id="path24" />
      <path
         class="cls-14"
         d="m 240.54,120.78 c -4.49,-0.03 -8.03,-3.57 -8.04,-8.06 0,-4.43 3.76,-8.08 8.35,-8.08 4.35,0 8.12,3.92 8.06,8.38 -0.06,4.31 -3.81,7.79 -8.37,7.76 z"
         id="path25" />
    </g>
    <circle
       class="cls-1"
       cx="292.51999"
       cy="181.95"
       r="11.78"
       id="circle25" />
    <circle
       class="cls-1"
       cx="48.59"
       cy="209.48"
       r="11.78"
       id="circle26" />
    <circle
       class="cls-21"
       cx="168.25999"
       cy="286.87"
       r="17.33"
       id="circle27" />
    <circle
       class="cls-9"
       cx="190.56"
       cy="93.870003"
       r="17.33"
       id="circle28" />
    <circle
       class="cls-9"
       cx="74.779999"
       cy="136.75"
       r="17.33"
       id="circle29" />
  </g>
</svg>
