<?xml version="1.0" encoding="UTF-8" standalone="no"?>
<svg
   id="_图层_1"
   data-name="图层 1"
   viewBox="0 0 1080 259.99999"
   version="1.1"
   sodipodi:docname="logo_path.svg"
   inkscape:version="1.4 (86a8ad7, 2024-10-11)"
   xml:space="preserve"
   width="1080"
   height="260"
   xmlns:inkscape="http://www.inkscape.org/namespaces/inkscape"
   xmlns:sodipodi="http://sodipodi.sourceforge.net/DTD/sodipodi-0.dtd"
   xmlns="http://www.w3.org/2000/svg"
   xmlns:svg="http://www.w3.org/2000/svg"><sodipodi:namedview
     id="namedview29"
     pagecolor="#ffffff"
     bordercolor="#000000"
     borderopacity="0.25"
     inkscape:showpageshadow="2"
     inkscape:pageopacity="0.0"
     inkscape:pagecheckerboard="0"
     inkscape:deskcolor="#d1d1d1"
     inkscape:zoom="0.94208841"
     inkscape:cx="525.95913"
     inkscape:cy="188.41119"
     inkscape:window-width="2560"
     inkscape:window-height="1351"
     inkscape:window-x="-9"
     inkscape:window-y="-9"
     inkscape:window-maximized="1"
     inkscape:current-layer="g8" /><defs
     id="defs1"><style
       id="style1">
      .cls-1 {
        fill: #efcc4a;
      }

      .cls-2, .cls-3, .cls-4 {
        fill: #727171;
      }


      .cls-9, .cls-10 {
        fill: #db3f29;
      }

      .cls-10 {
        stroke: #db3f29;
      }

      .cls-10, .cls-11, .cls-12 {
        stroke-miterlimit: 10;
        stroke-width: 4px;
      }

      .cls-5 {
        fill: #22a3dd;
      }

      .cls-13 {
        fill: #040000;
      }

      .cls-14 {
        fill: #509fd8;
      }

      .cls-6 {
        fill: #f3a51e;
      }

      .cls-6, .cls-7, .cls-4 {
        letter-spacing: 0em;
      }

      .cls-15 {
        fill: #52a1d9;
      }


      .cls-17 {
        fill: #db3f27;
      }

      .cls-11 {
        fill: #edcf55;
        stroke: #51a2da;
      }

      .cls-18 {
        fill: #050405;
      }

      .cls-12 {
        fill: #f0cc49;
        stroke: #f0cc49;
      }

      .cls-7, .cls-19 {
        fill: #00913a;
      }

      .cls-20 {
        font-size: 32.22px;
      }

      .cls-21 {
        fill: #51a2da;
      }

      .cls-22 {
        fill: #f2cc43;
      }

      .cls-8 {
        fill: #e7311b;
      }
    </style></defs><g
     id="g8"
     transform="matrix(1.5770498,0,0,1.5770498,-204.63424,-242.91457)"><path
       style="font-weight:bold;font-size:76.11px;fill:#231815"
       d="m 35.453584,-52.362789 q 0,1.412198 -1.003403,2.415601 -0.96624,0.96624 -2.378438,0.96624 H 21.889058 v 45.5991072 q 0,1.4121972 -0.96624,2.3784375 Q 19.919414,0 18.507217,0 h -0.07433 Q 17.020693,0 16.01729,-1.0034033 15.05105,-1.9696436 15.05105,-3.3818408 V -48.980948 H 4.8683643 q -1.3750342,0 -2.3784375,-0.96624 -1.0034034,-1.003403 -1.0034034,-2.415601 v -0.07433 q 0,-1.412197 1.0034034,-2.4156 1.0034033,-0.966241 2.3784375,-0.966241 H 32.071743 q 1.412198,0 2.378438,0.966241 1.003403,1.003403 1.003403,2.4156 z m 8.696164,-3.456167 q 1.375034,0 2.378438,0.966241 1.003403,1.003403 1.003403,2.4156 v 15.16254 q 4.422407,-3.307515 9.99687,-3.307515 6.949497,0 11.892188,4.94269 4.94269,4.942691 4.94269,11.929351 v 20.3282082 q 0,1.4121972 -1.003403,2.3784375 Q 72.393694,0 70.981496,0 H 70.90717 Q 69.494973,0 68.491569,-1.0034033 67.488166,-1.9696436 67.488166,-3.3818408 V -23.710049 q 0,-4.125103 -2.898721,-7.060986 -2.935883,-2.935884 -7.060986,-2.935884 -4.162266,0 -7.098149,2.935884 -2.898721,2.935883 -2.898721,7.060986 v 20.3282082 q 0,1.4121972 -1.003403,2.3784375 Q 45.524782,0 44.149748,0 H 44.038259 Q 42.663225,0 41.659821,-1.0034033 40.656418,-1.9696436 40.656418,-3.3818408 V -52.437115 q 0,-1.412197 1.003403,-2.4156 1.003404,-0.966241 2.378438,-0.966241 z m 56.822362,22.186363 q 6.2434,0 10.25701,4.794038 l -23.52423,10.628643 q -0.148652,-0.96624 -0.148652,-1.969644 0,-5.574463 3.902124,-9.51375 3.939287,-3.939287 9.513748,-3.939287 z m 18.43289,4.905527 q -2.4156,-5.314321 -7.35829,-8.547509 -5.01701,-3.307515 -11.0746,-3.307515 -8.398855,0 -14.344949,5.946094 -5.946094,5.946093 -5.946094,14.344951 0,8.398857 5.946094,14.3449512 Q 92.573255,0 100.97211,0 q 6.54071,0 11.85503,-3.8277979 5.20283,-3.7163086 7.28396,-9.7367281 0.59461,-1.672339 -0.40879,-3.084537 -1.04057,-1.44936 -2.78723,-1.44936 -2.45277,0 -3.27036,2.304111 -1.37503,3.976451 -4.79403,6.4663774 -3.5305,2.5642529 -7.87858,2.5642529 -6.540701,0 -10.554314,-5.1285063 3.121699,-1.412197 13.638854,-6.169072 8.47318,-3.827798 13.67601,-6.169072 1.30071,-0.59461 1.78383,-1.895318 0.48312,-1.337871 -0.11149,-2.601416 z m 64.70093,25.3452252 q 0,1.4121972 -1.0034,2.3784375 Q 182.09912,0 180.72409,0 h -0.11149 q -1.37503,0 -2.37844,-1.0034033 -1.0034,-0.9662403 -1.0034,-2.3784375 V -21.07147 h -22.48367 v 17.6896292 q 0,1.4121972 -1.0034,2.3784375 Q 152.74029,0 151.36525,0 h -0.11149 q -1.37503,0 -2.37844,-1.0034033 -1.0034,-0.9662403 -1.0034,-2.3784375 V -37.720533 q 0,-7.506943 5.31432,-12.821264 5.31432,-5.277159 12.7841,-5.277159 7.50695,0 12.82127,5.277159 5.31432,5.314321 5.31432,12.821264 z m -6.87517,-24.5276372 v -9.811055 q 0,-4.645385 -3.27035,-7.9529 -3.30752,-3.307515 -7.99007,-3.307515 -4.64538,0 -7.9529,3.307515 -3.27035,3.307515 -3.27035,7.9529 v 9.811055 z m 22.29786,-24.527637 q 0,-1.412197 -1.0034,-2.4156 -1.00341,-0.966241 -2.37844,-0.966241 h -0.11149 q -1.37503,0 -2.37844,0.966241 -1.0034,1.003403 -1.0034,2.4156 v 39.987481 q 0,5.1656691 3.64198,8.8076515 Q 199.93741,0 205.10308,0 h 10.81446 q 1.4122,0 2.4156,-1.0034033 1.0034,-0.9662403 1.0034,-2.3784375 v -0.074326 q 0,-1.4121973 -1.0034,-2.4156006 -1.0034,-1.0034034 -2.4156,-1.0034034 h -10.81446 q -2.30411,0 -3.93928,-1.6351757 -1.63518,-1.6351763 -1.63518,-3.9392873 z m 51.06207,-3.381841 q 12.26381,0 20.55118,8.993467 1.04057,1.152056 0.89192,2.675743 -0.18582,1.523686 -1.4122,2.378437 l -0.0743,0.07433 q -1.04056,0.743262 -2.30411,0.59461 -1.26354,-0.11149 -2.15546,-1.07773 -6.2434,-6.800845 -15.497,-6.800845 -8.69617,0 -14.86524,6.169073 -6.16907,6.169072 -6.16907,14.902397 0,8.733326 6.16907,14.902398 6.16907,6.131909 14.86524,6.131909 7.80424,0 13.71317,-5.05418 5.83461,-5.017016 7.06099,-12.561123 h -19.84509 q -1.4122,0 -2.4156,-1.003403 -0.96624,-0.96624 -0.96624,-2.378438 v -0.07433 q 0,-1.412197 0.96624,-2.4156 1.0034,-0.966241 2.4156,-0.966241 h 23.59856 q 1.4122,0 2.4156,0.966241 0.96624,1.003403 1.00341,2.4156 v 0.03716 q 0,11.55772 -8.17588,19.733599 Q 262.1484,0 250.59069,0 q -11.55772,0 -19.7336,-8.175879 -8.17588,-8.175879 -8.17588,-19.733599 0,-11.55772 8.17588,-19.733599 8.17588,-8.175879 19.7336,-8.175879 z m 61.80221,0 q 11.55772,0 19.77076,8.175879 8.17588,8.175879 8.17588,19.733599 0,11.55772 -8.17588,19.733599 Q 323.95062,0 312.3929,0 q -11.55772,0 -19.7336,-8.175879 -8.17588,-8.175879 -8.17588,-19.733599 0,-11.55772 8.17588,-19.733599 8.17588,-8.175879 19.7336,-8.175879 z m 0,6.838008 q -8.69616,0 -14.86523,6.169073 -6.16908,6.169072 -6.16908,14.902397 0,8.733326 6.16908,14.902398 6.16907,6.131909 14.86523,6.131909 8.73333,0 14.9024,-6.131909 6.16907,-6.169072 6.16907,-14.902398 0,-8.733325 -6.16907,-14.902397 -6.16907,-6.169073 -14.9024,-6.169073 z m 62.7313,-3.456167 q 0,-1.412197 -1.0034,-2.4156 -1.00341,-0.966241 -2.37844,-0.966241 h -0.11149 q -1.37503,0 -2.37844,0.966241 -1.0034,1.003403 -1.0034,2.4156 v 39.987481 q 0,5.1656691 3.64198,8.8076515 Q 375.53299,0 380.69866,0 h 10.81446 q 1.4122,0 2.4156,-1.0034033 1.00341,-0.9662403 1.00341,-2.3784375 v -0.074326 q 0,-1.4121973 -1.00341,-2.4156006 -1.0034,-1.0034034 -2.4156,-1.0034034 h -10.81446 q -2.30411,0 -3.93928,-1.6351757 -1.63518,-1.6351763 -1.63518,-3.9392873 z m 44.1869,11.855025 q 8.39885,0 14.34495,5.946094 5.94609,5.946093 5.94609,14.344951 v 16.9092042 q 0,1.4121972 -1.0034,2.3784375 Q 437.59533,0 436.2203,0 h -0.11149 q -1.37503,0 -2.37844,-1.0034033 -1.0034,-0.9662403 -1.0034,-2.3784375 v -1.709502 Q 426.96669,0 419.3111,0 q -8.39886,0 -14.34496,-5.9460938 -5.94609,-5.9460942 -5.94609,-14.3449512 0,-8.398858 5.94609,-14.344951 5.9461,-5.946094 14.34496,-5.946094 z m 0,6.875171 q -5.57447,0 -9.51375,3.939287 -3.90213,3.939287 -3.90213,9.476587 0,5.574463 3.90213,9.51375 3.93928,3.902124 9.51375,3.902124 5.57446,0 9.47658,-3.902124 3.93929,-3.939287 3.93929,-9.51375 0,-5.5373 -3.93929,-9.476587 -3.90212,-3.939287 -9.47658,-3.939287 z m 48.0147,0.07433 q 5.57447,0 9.47659,3.939287 3.93929,3.939287 3.93929,9.51375 0,5.5373 -3.93929,9.476587 -3.90212,3.9392873 -9.47659,3.9392873 -5.57446,0 -9.51375,-3.9392873 -3.90212,-3.939287 -3.90212,-9.476587 0,-5.574463 3.90212,-9.51375 3.93929,-3.939287 9.51375,-3.939287 z m -16.9092,-22.186363 q -1.37503,0 -2.37844,0.966241 -1.0034,1.003403 -1.0034,2.4156 v 32.257559 q 0.0372,8.361695 5.98326,14.2706253 Q 458.92695,0 467.3258,0 q 8.39886,0 14.34496,-5.9460938 5.94609,-5.9460942 5.94609,-14.3449512 0,-8.398858 -5.94609,-14.344951 -5.9461,-5.946094 -14.34496,-5.946094 -7.69275,0 -13.41587,5.091343 v -16.946368 q 0,-1.412197 -1.0034,-2.4156 -1.00341,-0.966241 -2.37844,-0.966241 z"
       id="text1"
       class="cls-16"
       transform="translate(315.91,247.29)"
       aria-label="The ALGO Lab" /><g
       id="text8"
       style="font-size:32.22px;stroke-width:0.981969"
       class="cls-20"
       transform="scale(0.98196897,1.0183621)"
       aria-label="-人工智能与大数据基础算法实验室-"><path
         style="font-weight:bold;font-family:'Source Han Sans CN';-inkscape-font-specification:'Source Han Sans CN Bold';fill:#727171"
         d="m 320.1501,278.75943 h 8.79606 v -3.41532 h -8.79606 z m 23.90727,-19.8153 c -0.12888,5.4774 0.4833,19.9764 -12.66246,27.00036 1.2888,0.86994 2.54538,2.12652 3.222,3.15756 6.73398,-3.96306 10.1493,-9.8271 11.9214,-15.53004 1.83654,5.57406 5.44518,11.9214 12.63024,15.33672 0.54774,-1.09548 1.64322,-2.4165 2.83536,-3.35088 -11.24478,-5.02632 -13.27464,-17.10882 -13.72572,-21.49074 0.12888,-1.99764 0.19332,-3.73752 0.22554,-5.12298 z m 20.10528,24.06834 v 3.89862 h 29.44908 v -3.89862 h -12.69468 v -16.72218 h 10.89036 v -4.05972 h -25.87266 v 4.05972 h 10.56816 v 16.72218 z m 51.61644,-18.3654 h 4.89744 v 5.4774 h -4.89744 z m -3.60864,-3.3831 v 12.27582 h 12.34026 v -12.27582 z m -7.76502,21.84516 h 13.3713 v 1.86876 h -13.3713 z m 0,-2.80314 v -1.80432 h 13.3713 v 1.80432 z m -3.76974,-4.833 v 13.66128 h 3.76974 v -1.06326 h 13.3713 v 1.03104 h 3.96306 v -13.62906 z m 1.83654,-11.14812 v 1.38546 l -0.0322,0.70884 h -3.0609 c 0.51552,-0.61218 0.99882,-1.32102 1.48212,-2.0943 z m -2.93202,-5.6385 c -0.6444,2.4165 -1.86876,4.76856 -3.5442,6.31512 0.6444,0.28998 1.70766,0.90216 2.48094,1.41768 h -2.19096 v 3.02868 h 5.38074 c -0.83772,1.57878 -2.48094,3.18978 -5.76738,4.44636 0.83772,0.6444 1.9332,1.80432 2.44872,2.5776 2.93202,-1.35324 4.80078,-2.96424 5.9607,-4.63968 1.4499,1.03104 3.222,2.35206 4.15638,3.15756 l 2.7387,-2.44872 c -0.83772,-0.57996 -4.05972,-2.4165 -5.44518,-3.09312 h 5.34852 v -3.02868 h -4.9941 l 0.0322,-0.6444 v -1.4499 h 4.1886 v -2.99646 h -8.02278 c 0.25776,-0.6444 0.4833,-1.2888 0.6444,-1.9332 z m 38.88954,15.01452 v 1.70766 h -4.80078 v -1.70766 z m -8.3772,-3.15756 v 18.55872 h 3.57642 v -6.08958 h 4.80078 v 2.15874 c 0,0.38664 -0.0967,0.4833 -0.51552,0.4833 -0.41886,0.0322 -1.67544,0.0644 -2.83536,0 0.4833,0.90216 1.06326,2.4165 1.25658,3.41532 1.9332,0 3.41532,-0.0322 4.5108,-0.6444 1.09548,-0.54774 1.41768,-1.51434 1.41768,-3.18978 v -14.69232 z m 3.57642,7.7328 h 4.80078 v 1.86876 h -4.80078 z m 20.84634,-17.36658 c -1.54656,0.90216 -3.7053,1.90098 -5.89626,2.7387 v -4.63968 h -3.80196 v 9.73044 c 0,3.5442 0.90216,4.63968 4.6719,4.63968 0.77328,0 3.64086,0 4.44636,0 2.96424,0 3.99528,-1.15992 4.41414,-5.3163 -1.06326,-0.22554 -2.60982,-0.8055 -3.3831,-1.41768 -0.12888,2.86758 -0.35442,3.35088 -1.38546,3.35088 -0.67662,0 -3.02868,0 -3.5442,0 -1.22436,0 -1.41768,-0.1611 -1.41768,-1.2888 v -1.9332 c 2.83536,-0.8055 5.86404,-1.86876 8.34498,-3.0609 z m 0.22554,14.499 c -1.54656,1.03104 -3.76974,2.12652 -6.05736,3.02868 v -4.3497 h -3.83418 v 10.18152 c 0,3.5442 0.9666,4.6719 4.73634,4.6719 0.77328,0 3.73752,0 4.54302,0 3.09312,0 4.12416,-1.2888 4.54302,-5.83182 -1.06326,-0.25776 -2.60982,-0.83772 -3.41532,-1.4499 -0.1611,3.31866 -0.35442,3.89862 -1.48212,3.89862 -0.67662,0 -3.09312,0 -3.64086,0 -1.22436,0 -1.4499,-0.1611 -1.4499,-1.32102 v -2.5776 c 2.93202,-0.90216 6.1218,-2.06208 8.60274,-3.41532 z m -24.74496,-6.41178 c 0.83772,-0.3222 2.12652,-0.54774 9.89154,-1.22436 0.22554,0.57996 0.41886,1.1277 0.54774,1.611 l 3.51198,-1.38546 c -0.54774,-2.02986 -2.15874,-4.92966 -3.67308,-7.12062 l -3.28644,1.22436 c 0.54774,0.83772 1.09548,1.80432 1.57878,2.77092 l -4.73634,0.3222 c 1.25658,-1.57878 2.54538,-3.47976 3.47976,-5.3163 l -4.12416,-1.06326 c -0.90216,2.35206 -2.4165,4.6719 -2.93202,5.28408 -0.51552,0.67662 -1.03104,1.15992 -1.54656,1.2888 0.45108,0.99882 1.09548,2.80314 1.2888,3.60864 z m 30.99565,8.8605 v 3.7053 h 20.1375 v -3.7053 z m 6.41178,-18.42984 c -0.70884,4.833 -1.96542,11.14812 -2.99646,15.01452 l 3.3831,0.0322 h 0.74106 16.04556 c -0.57996,6.15402 -1.35324,9.3438 -2.4165,10.18152 -0.4833,0.35442 -0.9666,0.38664 -1.7721,0.38664 -1.06326,0 -3.7053,0 -6.2829,-0.22554 0.83772,1.09548 1.41768,2.7387 1.51434,3.8664 2.31984,0.0967 4.70412,0.1611 6.02514,0.0322 1.70766,-0.1611 2.80314,-0.45108 3.8664,-1.57878 1.51434,-1.54656 2.38428,-5.41296 3.222,-14.56344 0.0644,-0.51552 0.12888,-1.67544 0.12888,-1.67544 H 469.2643 l 0.86994,-4.38192 h 17.84988 v -3.7053 h -17.17326 l 0.51552,-3.02868 z m 38.14848,-0.51552 c -0.0322,2.64204 0,5.6385 -0.3222,8.66718 h -11.79252 v 3.99528 h 11.14812 c -1.2888,5.57406 -4.3497,10.89036 -11.7603,14.20902 1.1277,0.83772 2.28762,2.22318 2.8998,3.25422 6.86286,-3.28644 10.34262,-8.31276 12.11472,-13.72572 2.51316,6.2829 6.25068,11.01924 12.11472,13.72572 0.61218,-1.09548 1.90098,-2.80314 2.86758,-3.64086 -6.05736,-2.44872 -9.95598,-7.53948 -12.11472,-13.82238 h 11.40588 v -3.99528 h -12.7269 c 0.3222,-3.02868 0.35442,-5.99292 0.38664,-8.66718 z m 31.96224,0.35442 c -0.51552,1.22436 -1.41768,2.99646 -2.12652,4.12416 l 2.44872,1.09548 c 0.83772,-0.99882 1.86876,-2.48094 2.93202,-3.93084 z m -1.611,19.332 c -0.57996,1.1277 -1.35324,2.12652 -2.22318,2.99646 l -2.64204,-1.2888 0.9666,-1.70766 z m -9.47268,2.93202 c 1.48212,0.57996 3.0609,1.35324 4.60746,2.15874 -1.83654,1.1277 -3.99528,1.96542 -6.34734,2.48094 0.6444,0.67662 1.38546,2.02986 1.73988,2.8998 2.8998,-0.8055 5.50962,-1.96542 7.70058,-3.60864 0.93438,0.57996 1.7721,1.15992 2.44872,1.67544 l 2.28762,-2.51316 c -0.6444,-0.45108 -1.4499,-0.93438 -2.28762,-1.4499 1.64322,-1.86876 2.8998,-4.1886 3.7053,-7.05618 l -2.0943,-0.77328 -0.57996,0.12888 h -4.05972 l 0.51552,-1.25658 -3.41532,-0.61218 c -0.22554,0.61218 -0.4833,1.22436 -0.77328,1.86876 h -4.09194 v 3.12534 h 2.48094 c -0.61218,1.09548 -1.25658,2.0943 -1.83654,2.93202 z m -0.41886,-20.943 c 0.77328,1.25658 1.54656,2.93202 1.7721,4.0275 h -2.54538 v 3.02868 h 4.76856 c -1.48212,1.57878 -3.5442,2.99646 -5.44518,3.76974 0.70884,0.70884 1.54656,1.96542 1.99764,2.83536 1.611,-0.90216 3.31866,-2.22318 4.80078,-3.7053 v 2.86758 h 3.57642 v -3.47976 c 1.22436,0.9666 2.48094,2.02986 3.18978,2.70648 l 2.02986,-2.67426 c -0.57996,-0.41886 -2.35206,-1.48212 -3.83418,-2.31984 h 4.73634 v -3.02868 h -6.1218 v -5.73516 h -3.57642 v 5.73516 h -3.31866 l 2.67426,-1.15992 c -0.25776,-1.15992 -1.09548,-2.80314 -1.9332,-4.0275 z m 17.5599,-1.611 c -0.70884,5.7996 -2.15874,11.30922 -4.73634,14.6601 0.77328,0.54774 2.22318,1.80432 2.77092,2.44872 0.61218,-0.86994 1.19214,-1.83654 1.70766,-2.8998 0.61218,2.44872 1.35324,4.73634 2.28762,6.7662 -1.67544,2.70648 -4.0275,4.73634 -7.28172,6.21846 0.6444,0.74106 1.67544,2.35206 1.99764,3.12534 3.02868,-1.54656 5.38074,-3.47976 7.18506,-5.89626 1.4499,2.22318 3.25422,4.09194 5.4774,5.4774 0.54774,-0.9666 1.67544,-2.35206 2.51316,-3.02868 -2.44872,-1.35324 -4.38192,-3.3831 -5.89626,-5.89626 1.54656,-3.18978 2.51316,-6.99174 3.12534,-11.53476 h 2.02986 v -3.57642 h -8.63496 c 0.38664,-1.73988 0.74106,-3.51198 0.99882,-5.34852 z m 5.54184,9.44046 c -0.3222,2.7387 -0.8055,5.18742 -1.54656,7.31394 -0.86994,-2.2554 -1.51434,-4.70412 -1.96542,-7.31394 z m 22.58622,10.34262 v 10.37484 h 3.31866 v -0.93438 h 7.79724 v 0.90216 h 3.47976 v -10.34262 h -5.7996 v -3.09312 h 6.54066 v -3.25422 h -6.54066 v -2.86758 h 5.6385 v -9.37602 H 568.3408 v 9.89154 c 0,5.05854 -0.25776,12.14694 -3.47976,16.9155 0.83772,0.41886 2.48094,1.57878 3.12534,2.2554 2.48094,-3.64086 3.47976,-8.8605 3.8664,-13.56462 h 4.9941 v 3.09312 z m 0.41886,-15.27228 h 10.37484 v 2.77092 h -10.37484 z m 0,6.05736 h 4.76856 v 2.86758 h -4.80078 l 0.0322,-2.35206 z m 2.8998,15.59448 v -3.222 h 7.79724 v 3.222 z M 560.608,258.91191 v 6.08958 h -3.3831 v 3.5442 h 3.3831 v 5.76738 l -3.89862,0.93438 0.86994,3.7053 3.02868,-0.86994 v 6.54066 c 0,0.41886 -0.12888,0.54774 -0.51552,0.54774 -0.38664,0.0322 -1.51434,0.0322 -2.70648,0 0.4833,0.99882 0.90216,2.60982 0.99882,3.5442 2.0943,0 3.51198,-0.12888 4.47858,-0.74106 0.99882,-0.57996 1.2888,-1.54656 1.2888,-3.31866 v -7.5717 l 3.31866,-0.99882 -0.4833,-3.47976 -2.83536,0.77328 v -4.833 h 3.25422 v -3.5442 h -3.25422 v -6.08958 z"
         id="path3" /><path
         style="font-weight:bold;font-family:'Source Han Sans CN';-inkscape-font-specification:'Source Han Sans CN Bold';fill:#e7311b"
         d="m 609.48573,258.91191 v 2.4165 h -10.1493 v -2.44872 h -3.8664 v 2.44872 h -4.44636 v 3.12534 h 4.44636 v 9.666 h -6.18624 v 3.15756 h 6.21846 c -1.7721,1.70766 -4.12416,3.18978 -6.50844,4.05972 0.8055,0.70884 1.9332,2.06208 2.48094,2.93202 1.80432,-0.8055 3.57642,-1.9332 5.1552,-3.31866 v 2.06208 h 5.70294 v 2.0943 h -10.1493 v 3.15756 h 24.68052 v -3.15756 h -10.60038 v -2.0943 h 5.89626 v -2.38428 c 1.54656,1.38546 3.31866,2.54538 5.09076,3.35088 0.54774,-0.90216 1.70766,-2.28762 2.54538,-2.96424 -2.28762,-0.8055 -4.54302,-2.19096 -6.31512,-3.73752 h 5.9607 v -3.15756 h -5.99292 v -9.666 h 4.41414 v -3.12534 h -4.41414 v -2.4165 z m -10.1493,5.54184 h 10.1493 v 1.38546 h -10.1493 z m 0,4.09194 h 10.1493 v 1.41768 h -10.1493 z m 0,4.12416 h 10.1493 v 1.4499 h -10.1493 z m 2.99646,5.25186 v 2.02986 h -4.63968 c 0.86994,-0.83772 1.64322,-1.73988 2.28762,-2.67426 h 9.15048 c 0.67662,0.93438 1.4499,1.83654 2.31984,2.67426 h -5.18742 v -2.02986 z"
         id="path4" /><path
         style="font-weight:bold;font-family:'Source Han Sans CN';-inkscape-font-specification:'Source Han Sans CN Bold';fill:#f3a51e"
         d="m 621.85821,260.32959 v 3.47976 h 3.44754 c -0.8055,4.28526 -2.12652,8.24832 -4.15638,10.92258 0.51552,1.1277 1.22436,3.57642 1.35324,4.57524 0.45108,-0.54774 0.90216,-1.15992 1.32102,-1.80432 v 10.11708 h 3.15756 v -2.4165 h 5.73516 v -14.85342 h -5.54184 c 0.70884,-2.0943 1.2888,-4.31748 1.73988,-6.54066 h 4.44636 v -3.47976 z m 5.12298,13.40352 h 2.54538 v 8.11944 h -2.54538 z m 6.89508,0.99882 v 12.59802 h 13.24242 v 1.70766 h 3.73752 v -14.24124 h -3.73752 v 8.79606 h -2.83536 v -10.27818 h 5.86404 v -11.24478 h -3.67308 v 7.82946 h -2.19096 v -10.85814 h -3.83418 v 10.85814 h -2.4165 v -7.82946 h -3.47976 v 11.24478 h 5.89626 v 10.27818 h -2.70648 v -8.8605 z"
         id="path5" /><path
         style="font-weight:bold;font-family:'Source Han Sans CN';-inkscape-font-specification:'Source Han Sans CN Bold';fill:#22a3dd"
         d="m 661.87545,272.02545 h 14.37012 v 1.19214 h -14.37012 z m 0,3.3831 h 14.37012 v 1.19214 h -14.37012 z m 0,-6.66954 h 14.37012 v 1.1277 h -14.37012 z m 9.56934,-10.11708 c -0.6444,1.7721 -1.7721,3.5442 -3.09312,4.92966 v -2.54538 h -7.15284 l 0.70884,-1.38546 -3.57642,-0.99882 c -1.06326,2.44872 -2.96424,4.89744 -4.9941,6.444 0.90216,0.4833 2.4165,1.51434 3.12534,2.12652 0.93438,-0.83772 1.90098,-1.9332 2.80314,-3.15756 h 0.67662 c 0.4833,0.77328 0.99882,1.67544 1.2888,2.38428 h -3.25422 v 12.46914 h 3.96306 v 1.9332 h -7.70058 v 3.09312 h 6.444 c -1.03104,0.93438 -2.86758,1.80432 -6.02514,2.4165 0.83772,0.70884 1.90098,1.99764 2.4165,2.83536 5.09076,-1.32102 7.37838,-3.18978 8.28054,-5.25186 h 7.2495 v 5.18742 h 4.0275 v -5.18742 h 6.79842 v -3.09312 h -6.79842 v -1.9332 h 3.67308 v -12.46914 h -2.86758 l 2.19096,-0.9666 c -0.25776,-0.41886 -0.61218,-0.90216 -1.06326,-1.41768 h 4.76856 v -3.02868 h -8.89272 c 0.25776,-0.4833 0.4833,-0.99882 0.67662,-1.48212 z m 1.15992,22.19958 h -6.7662 v -1.9332 h 6.7662 z m -3.02868,-14.40234 h -6.99174 l 2.15874,-0.77328 c -0.1611,-0.45108 -0.4833,-1.03104 -0.83772,-1.611 h 3.99528 c -0.35442,0.35442 -0.70884,0.6444 -1.09548,0.93438 0.74106,0.3222 1.9332,0.93438 2.77092,1.4499 z m 0.99882,0 c 0.67662,-0.67662 1.38546,-1.48212 2.02986,-2.38428 h 1.70766 c 0.6444,0.77328 1.32102,1.64322 1.7721,2.38428 z"
         id="path6" /><path
         style="font-weight:bold;font-family:'Source Han Sans CN';-inkscape-font-specification:'Source Han Sans CN Bold';fill:#00913a"
         d="m 687.94143,262.06947 c 2.06208,0.9666 4.76856,2.51316 5.99292,3.64086 l 2.2554,-3.18978 c -1.35324,-1.06326 -4.09194,-2.48094 -6.1218,-3.28644 z m -1.90098,8.6994 c 2.06208,0.90216 4.76856,2.38428 6.02514,3.47976 l 2.15874,-3.222 c -1.38546,-1.06326 -4.12416,-2.4165 -6.15402,-3.15756 z m 1.1277,15.40116 3.28644,2.60982 c 1.9332,-3.15756 3.96306,-6.83064 5.67072,-10.21374 l -2.83536,-2.5776 c -1.9332,3.73752 -4.41414,7.76502 -6.1218,10.18152 z m 10.60038,2.22318 c 1.09548,-0.51552 2.7387,-0.8055 13.5324,-2.12652 0.51552,1.03104 0.90216,2.02986 1.15992,2.86758 l 3.44754,-1.73988 c -0.86994,-2.64204 -3.18978,-6.37956 -5.38074,-9.1827 l -3.12534,1.51434 c 0.74106,1.03104 1.48212,2.15874 2.15874,3.31866 l -7.60392,0.8055 c 1.611,-2.44872 3.222,-5.38074 4.54302,-8.31276 h 8.76384 v -3.64086 h -7.76502 v -4.54302 h 6.6051 v -3.67308 h -6.6051 v -4.80078 h -3.93084 v 4.80078 h -6.37956 v 3.67308 h 6.37956 v 4.54302 h -7.70058 v 3.64086 h 6.08958 c -1.2888,3.18978 -2.83536,6.02514 -3.41532,6.89508 -0.77328,1.19214 -1.35324,1.90098 -2.12652,2.0943 0.4833,1.09548 1.15992,3.02868 1.35324,3.8664 z"
         id="path7" /><path
         style="font-weight:bold;font-family:'Source Han Sans CN';-inkscape-font-specification:'Source Han Sans CN Bold';fill:#727171"
         d="m 734.20935,284.14017 c 4.12416,1.22436 8.34498,3.18978 10.82592,4.86522 l 2.35206,-3.0609 c -2.60982,-1.57878 -7.18506,-3.47976 -11.37366,-4.6719 z m -9.60156,-15.43338 c 1.67544,0.9666 3.73752,2.51316 4.63968,3.57642 l 2.4165,-2.77092 c -1.03104,-1.09548 -3.12534,-2.48094 -4.80078,-3.31866 z m -3.28644,4.833 c 1.70766,0.93438 3.83418,2.38428 4.80078,3.47976 l 2.31984,-2.8998 c -1.06326,-1.03104 -3.222,-2.38428 -4.92966,-3.15756 z m -1.70766,-11.63142 v 7.4106 h 3.83418 v -3.80196 h 19.4931 v 3.80196 h 4.05972 v -7.4106 h -10.92258 c -0.4833,-1.09548 -1.19214,-2.38428 -1.83654,-3.41532 l -3.89862,1.19214 c 0.38664,0.67662 0.77328,1.4499 1.1277,2.22318 z m -0.28998,15.53004 v 3.222 h 10.43928 c -1.86876,2.28762 -4.96188,3.96306 -10.18152,5.12298 0.8055,0.83772 1.7721,2.31984 2.15874,3.31866 7.12062,-1.73988 10.7937,-4.54302 12.75912,-8.44164 h 12.85578 v -3.222 h -11.69586 c 0.8055,-2.99646 0.99882,-6.50844 1.1277,-10.53594 h -4.09194 c -0.12888,4.22082 -0.22554,7.70058 -1.19214,10.53594 z m 30.67344,3.41532 0.6444,3.02868 c 2.38428,-0.54774 5.21964,-1.25658 7.99056,-1.90098 l -0.28998,-2.83536 c -3.09312,0.67662 -6.18624,1.32102 -8.34498,1.70766 z m 14.20902,-5.83182 c 0.70884,2.4165 1.48212,5.57406 1.70766,7.63614 l 3.12534,-0.86994 c -0.3222,-2.02986 -1.09548,-5.1552 -1.90098,-7.53948 z m 5.57406,-0.90216 c 0.51552,2.4165 1.09548,5.57406 1.22436,7.66836 l 3.09312,-0.51552 c -0.19332,-2.06208 -0.77328,-5.12298 -1.35324,-7.5717 z m -17.68878,-8.66718 c -0.12888,3.64086 -0.45108,8.47386 -0.86994,11.40588 h 8.3772 c -0.3222,5.67072 -0.67662,8.02278 -1.25658,8.63496 -0.3222,0.3222 -0.61218,0.38664 -1.1277,0.38664 -0.61218,0 -1.96542,-0.0322 -3.3831,-0.1611 0.51552,0.86994 0.90216,2.15874 0.9666,3.09312 1.54656,0.0644 3.0609,0.0644 3.93084,-0.0322 1.03104,-0.12888 1.7721,-0.38664 2.44872,-1.22436 0.9666,-1.1277 1.38546,-4.28526 1.7721,-12.34026 0.0322,-0.41886 0.0644,-1.38546 0.0644,-1.38546 h -2.48094 c 0.38664,-3.67308 0.77328,-9.31158 0.99882,-13.75794 h -10.69704 v 3.25422 h 7.31394 c -0.19332,3.67308 -0.4833,7.66836 -0.83772,10.53594 h -2.51316 c 0.22554,-2.5776 0.45108,-5.6385 0.57996,-8.2161 z m 18.8487,-1.2888 c 1.35324,1.54656 2.8998,3.15756 4.54302,4.57524 h -8.57052 c 1.4499,-1.38546 2.80314,-2.93202 4.0275,-4.57524 z m -0.57996,-5.6385 c -1.99764,4.12416 -5.60628,7.86168 -9.37602,10.11708 0.6444,0.74106 1.7721,2.38428 2.19096,3.15756 1.09548,-0.74106 2.15874,-1.611 3.222,-2.5776 v 2.77092 h 9.9882 v -2.48094 c 0.9666,0.8055 1.96542,1.54656 2.93202,2.19096 0.35442,-1.06326 1.09548,-2.86758 1.73988,-3.83418 -2.86758,-1.51434 -6.05736,-4.1886 -8.18388,-6.66954 l 0.83772,-1.51434 z m -6.95952,25.9371 v 3.28644 h 16.78662 v -3.28644 h -3.8664 c 1.32102,-2.80314 2.77092,-6.57288 3.93084,-9.8271 l -3.47976,-0.74106 c -0.77328,3.222 -2.28762,7.60392 -3.64086,10.56816 z m 22.8762,-5.67072 v 3.31866 h 9.37602 v 2.77092 h -12.21138 v 3.3831 h 28.67581 v -3.3831 h -12.50137 v -2.77092 h 9.92376 v -3.31866 h -9.92376 v -2.44872 h -3.96306 v 2.44872 z m 8.82828,-19.26756 c 0.28998,0.57996 0.57996,1.25658 0.83772,1.9332 h -12.43692 v 6.21846 h 3.60864 v 2.5776 h 4.76856 c -1.2888,1.15992 -2.44872,2.06208 -2.99646,2.4165 -0.86994,0.6444 -1.54656,1.03104 -2.28762,1.15992 0.38664,0.93438 0.93438,2.64204 1.1277,3.31866 1.25658,-0.4833 3.02868,-0.61218 17.49546,-1.7721 0.70884,0.74106 1.32102,1.4499 1.73988,2.02986 l 3.02868,-2.06208 c -1.19214,-1.48212 -3.44754,-3.51198 -5.44518,-5.09076 h 3.83418 v -2.5776 h 3.44755 v -6.21846 h -11.53477 c -0.35442,-0.9666 -0.90216,-2.0943 -1.4499,-3.02868 z m 5.67072,11.79252 1.70766,1.4499 -9.44046,0.61218 c 1.32102,-0.9666 2.64204,-2.02986 3.80196,-3.12534 h 5.60628 z m -13.46796,-4.3497 v -1.99764 h 20.58858 v 1.99764 z m 28.06363,11.79252 h 8.79606 v -3.41532 h -8.79606 z"
         id="path26" /></g></g><g
     id="g29"
     transform="translate(-28,-68)"><path
       class="cls-12"
       d="m 190.56,93.87 c -1.3,37.95 -2.61,75.9 -3.91,113.85"
       id="path8" /><path
       class="cls-11"
       d="m 190.44,93.17 c -16.51,16.05 -33.03,32.11 -49.54,48.16"
       id="path9" /><path
       class="cls-10"
       d="m 74.78,136.75 c 22.04,1.53 44.07,3.06 66.11,4.58"
       id="path10" /><path
       class="cls-12"
       d="m 74.84,137.2 c -8.83,24.2 -17.66,48.39 -26.49,72.59"
       id="path11" /><path
       class="cls-11"
       d="m 48.47,209.46 c 30.81,-22.71 61.62,-45.42 92.42,-68.13"
       id="path12" /><path
       class="cls-10"
       d="m 48.47,209.46 c 12.23,28.21 24.46,56.41 36.69,84.62"
       id="path13" /><path
       class="cls-10"
       d="m 85.16,294.08 c 27.7,-2.4 55.4,-4.81 83.1,-7.21"
       id="path14" /><path
       class="cls-11"
       d="m 168.26,286.87 c 6.13,-26.38 12.26,-52.76 18.39,-79.14"
       id="path15" /><path
       class="cls-10"
       d="m 238.26,154.75 c 18.09,9.07 36.17,18.13 54.26,27.2"
       id="path16" /><path
       class="cls-12"
       d="m 292.52,181.95 c -17.74,30.5 -35.49,60.99 -53.23,91.49"
       id="path17" /><g
       id="g25"><path
         class="cls-13"
         d="m 253.87,259.89 c 1.53,4.08 3.48,8.02 3.86,12.48 0.86,10.34 -6.48,18.75 -17.36,19.81 -8.97,0.87 -17.82,-6.84 -18.63,-16.41 -0.52,-6.19 -0.96,-12.38 -3.8,-18.05 -3.42,-6.84 -7.49,-13.39 -12.48,-19.09 -4.43,-5.05 -10.73,-7.67 -17.57,-8.51 -0.72,-0.09 -1.44,-0.21 -2.17,-0.31 -1.28,0.17 -2.55,0.07 -3.81,-0.18 -3.19,-1.19 -6.4,-2.32 -9.07,-4.56 -7.23,-6.09 -10.44,-13.7 -8.81,-23.13 0.62,-3.57 1.27,-7.14 1.99,-10.7 1.48,-7.31 -3.4,-20.93 -14.81,-23.69 -2.16,-0.52 -4.03,-0.16 -5.79,1.11 -3.42,2.48 -5.92,5.82 -8.35,9.19 -3.28,4.56 -5.81,9.54 -7.9,14.76 -5.66,14.11 -11.23,28.25 -16.69,42.43 -3.16,8.2 -4.95,16.82 -5.93,25.56 -0.31,2.76 0.82,3.58 3.51,2.65 3.76,-1.3 6.94,-3.67 10.2,-5.86 6.24,-4.18 11.61,-9.43 17.21,-14.38 6.91,-6.11 13.66,-12.38 20.66,-18.38 1.99,-1.7 2.6,-1.58 4.13,0.59 0.17,0.25 0.34,0.5 0.51,0.75 2.44,3.66 2.28,3.85 -1.04,6.87 -6.32,5.74 -12.79,11.31 -19.09,17.08 -4.07,3.72 -8.21,7.38 -12.12,11.26 -8.32,8.27 -15.12,17.68 -20.7,27.98 -0.51,0.94 -0.9,1.92 -1,2.99 -0.39,1.25 -0.14,2.64 -0.88,3.8 -2.51,13.84 -13.83,20.35 -23.76,19.92 -9.29,-0.4 -16.31,-4.84 -20.18,-13.35 -3.87,-8.52 -2.88,-16.74 2.98,-24.18 1.21,-1.53 2.65,-2.87 3.99,-4.3 1.05,-1.14 2.49,-1.73 3.68,-2.67 4.66,-2.72 8.11,-6.75 11.48,-10.81 1.69,-2.04 3.54,-3.93 5.33,-5.85 4.88,-5.23 8.34,-11.29 10.96,-17.84 6.5,-16.26 13.3,-32.41 18.92,-49.01 3.03,-8.94 4.05,-18.08 2.23,-27.43 -0.18,-2.08 -1.09,-3.88 -2.16,-5.63 -2.31,-4.06 -3.46,-8.42 -3.57,-13.08 0.52,-1.45 -0.29,-3.23 1.12,-4.45 3.22,-11.25 11.24,-17.93 22.59,-18.56 5.97,-0.34 11.22,1.84 15.94,5.38 1.62,0.93 2.8,2.34 3.99,3.73 4.85,6.41 6.06,13.65 4.28,21.29 -2.03,8.71 0.13,16.21 4.74,23.68 4.7,7.61 11.55,9.87 19.73,10.06 1.34,0.32 2.82,0.25 3.93,1.29 7.12,2.97 12.75,7.41 15.03,15.17 0.99,3.37 1.62,6.84 0.89,10.29 -2.72,12.71 0.55,23.87 8.37,33.96 1.48,1.91 2.76,3.96 4.15,5.93 0.43,0.61 0.85,1.29 1.43,1.74 5.66,4.43 8.2,3.05 10.07,-2.23 1.55,-4.4 2.27,-8.89 2.36,-13.51 0.31,-15.94 0.42,-31.89 0.24,-47.84 -0.04,-3.62 -1.26,-6.99 -2.71,-10.21 -1.91,-4.22 -6.15,-4.71 -9.87,-1.17 -3.07,2.92 -6.34,5.6 -9.45,8.46 -1.35,1.24 -2.09,0.98 -3.07,-0.25 -0.56,-0.7 -1.25,-1.3 -1.93,-1.89 -1.74,-1.52 -1.87,-2.49 -0.03,-3.77 8.57,-5.98 11.87,-14.69 12.98,-24.58 1.28,-11.35 11.69,-18.09 22.13,-14.36 6.38,2.28 11.97,9.32 9.91,19.1 -0.1,1.8 -0.5,3.52 -1.5,5.06 -4.8,9.4 -8.11,19.18 -8.09,29.89 0.03,11.79 0.22,23.58 -0.06,35.36 -0.22,9.53 2.14,18.22 6.85,26.38 0.6,1.44 1.67,2.67 1.96,4.25 z"
         id="path18" /><path
         class="cls-18"
         d="m 240.97,125.32 c -6.9,0.06 -12.69,-5.66 -12.78,-12.62 -0.09,-7.09 5.55,-12.8 12.69,-12.86 7.2,-0.05 12.79,5.42 12.89,12.61 0.1,6.97 -5.71,12.8 -12.8,12.86 z"
         id="path19" /><path
         class="cls-15"
         d="m 158.67,141.99 c 0,9.31 -7.54,16.91 -16.78,16.9 -10.02,0 -17.46,-7.59 -17.4,-17.74 0.05,-8.67 8.19,-16.28 17.37,-16.22 9.44,0.06 16.82,7.55 16.82,17.06 z"
         id="path20" /><path
         class="cls-22"
         d="m 186.49,223.09 c -9.25,0.12 -16.93,-7.35 -17.12,-16.65 -0.19,-9.35 7.48,-17.22 16.96,-17.39 9.28,-0.17 17.06,7.44 17.22,16.86 0.17,9.45 -7.39,17.06 -17.06,17.18 z"
         id="path21" /><path
         class="cls-17"
         d="m 85.77,275.98 c 9.69,-0.05 16.95,7.34 17,17.31 0.05,8.93 -7.78,16.68 -16.82,16.64 -9.53,-0.04 -17.16,-7.33 -17.21,-16.43 -0.05,-10 7.2,-17.47 17.02,-17.53 z"
         id="path22" /><path
         class="cls-19"
         d="m 251.28,273.37 c -0.02,6.66 -5.27,11.79 -12.03,11.75 -6.53,-0.04 -11.67,-5.31 -11.64,-11.92 0.04,-6.52 5.32,-11.7 11.93,-11.68 6.61,0.02 11.75,5.21 11.73,11.85 z"
         id="path23" /><path
         class="cls-9"
         d="m 238.7,167.09 c -6.3,-0.03 -11.07,-4.88 -11.05,-11.22 0.02,-6.14 5.12,-11.14 11.29,-11.09 6.12,0.05 11.09,5.12 11.08,11.32 0,6.2 -4.98,11.03 -11.32,11 z"
         id="path24" /><path
         class="cls-14"
         d="m 240.54,120.78 c -4.49,-0.03 -8.03,-3.57 -8.04,-8.06 0,-4.43 3.76,-8.08 8.35,-8.08 4.35,0 8.12,3.92 8.06,8.38 -0.06,4.31 -3.81,7.79 -8.37,7.76 z"
         id="path25" /></g><circle
       class="cls-1"
       cx="292.51999"
       cy="181.95"
       r="11.78"
       id="circle25" /><circle
       class="cls-1"
       cx="48.59"
       cy="209.48"
       r="11.78"
       id="circle26" /><circle
       class="cls-21"
       cx="168.25999"
       cy="286.87"
       r="17.33"
       id="circle27" /><circle
       class="cls-9"
       cx="190.56"
       cy="93.870003"
       r="17.33"
       id="circle28" /><circle
       class="cls-9"
       cx="74.779999"
       cy="136.75"
       r="17.33"
       id="circle29" /></g></svg>
