<?xml version="1.0" encoding="UTF-8" standalone="no"?>
<svg
   id="_图层_1"
   data-name="图层 1"
   viewBox="0 0 279.99999 279.99999"
   version="1.1"
   sodipodi:docname="logo.svg"
   inkscape:export-filename="ALGO_LAB_LOGO1.svg"
   inkscape:export-xdpi="96"
   inkscape:export-ydpi="96"
   inkscape:version="1.4 (e7c3feb100, 2024-10-09)"
   width="280"
   height="280"
   xmlns:inkscape="http://www.inkscape.org/namespaces/inkscape"
   xmlns:sodipodi="http://sodipodi.sourceforge.net/DTD/sodipodi-0.dtd"
   xmlns="http://www.w3.org/2000/svg"
   xmlns:svg="http://www.w3.org/2000/svg">
  <sodipodi:namedview
     id="namedview29"
     pagecolor="#ffffff"
     bordercolor="#000000"
     borderopacity="0.25"
     inkscape:showpageshadow="2"
     inkscape:pageopacity="0.0"
     inkscape:pagecheckerboard="0"
     inkscape:deskcolor="#d1d1d1"
     inkscape:zoom="1.603951"
     inkscape:cx="237.85015"
     inkscape:cy="121.57478"
     inkscape:window-width="2048"
     inkscape:window-height="1080"
     inkscape:window-x="0"
     inkscape:window-y="0"
     inkscape:window-maximized="1"
     inkscape:current-layer="_图层_1" />
  <defs
     id="defs1">
    <style
       id="style1">
      .cls-1 {
        fill: #efcc4a;
      }

      .cls-2, .cls-3, .cls-4 {
        fill: #727171;
      }

      .cls-2, .cls-5, .cls-6, .cls-7, .cls-4, .cls-8 {
        font-family: MicrosoftYaHei-Bold, 'Microsoft YaHei';
        font-weight: 700;
      }

      .cls-9, .cls-10 {
        fill: #db3f29;
      }

      .cls-10 {
        stroke: #db3f29;
      }

      .cls-10, .cls-11, .cls-12 {
        stroke-miterlimit: 10;
        stroke-width: 4px;
      }

      .cls-3 {
        font-family: MicrosoftYaHei, 'Microsoft YaHei';
      }

      .cls-5 {
        fill: #22a3dd;
      }

      .cls-13 {
        fill: #040000;
      }

      .cls-14 {
        fill: #509fd8;
      }

      .cls-6 {
        fill: #f3a51e;
      }

      .cls-6, .cls-7, .cls-4 {
        letter-spacing: 0em;
      }

      .cls-15 {
        fill: #52a1d9;
      }

      .cls-16 {
        fill: #231815;
        font-family: TypoRoundRegularDemo, 'Typo Round Regular Demo';
        font-size: 76.11px;
      }

      .cls-17 {
        fill: #db3f27;
      }

      .cls-11 {
        fill: #edcf55;
        stroke: #51a2da;
      }

      .cls-18 {
        fill: #050405;
      }

      .cls-12 {
        fill: #f0cc49;
        stroke: #f0cc49;
      }

      .cls-7, .cls-19 {
        fill: #00913a;
      }

      .cls-20 {
        font-size: 32.22px;
      }

      .cls-21 {
        fill: #51a2da;
      }

      .cls-22 {
        fill: #f2cc43;
      }

      .cls-8 {
        fill: #e7311b;
      }
    </style>
  </defs>
  <g
     id="g29"
     inkscape:export-filename="g29.svg"
     inkscape:export-xdpi="96"
     inkscape:export-ydpi="96"
     transform="matrix(0.81766352,0,0,0.81766352,1.0983968,-20.222851)">
    <path
       class="cls-12"
       d="m 190.56,93.87 c -1.3,37.95 -2.61,75.9 -3.91,113.85"
       id="path8" />
    <path
       class="cls-11"
       d="m 190.44,93.17 c -16.51,16.05 -33.03,32.11 -49.54,48.16"
       id="path9" />
    <path
       class="cls-10"
       d="m 74.78,136.75 c 22.04,1.53 44.07,3.06 66.11,4.58"
       id="path10" />
    <path
       class="cls-12"
       d="m 74.84,137.2 c -8.83,24.2 -17.66,48.39 -26.49,72.59"
       id="path11" />
    <path
       class="cls-11"
       d="m 48.47,209.46 c 30.81,-22.71 61.62,-45.42 92.42,-68.13"
       id="path12" />
    <path
       class="cls-10"
       d="m 48.47,209.46 c 12.23,28.21 24.46,56.41 36.69,84.62"
       id="path13" />
    <path
       class="cls-10"
       d="m 85.16,294.08 c 27.7,-2.4 55.4,-4.81 83.1,-7.21"
       id="path14" />
    <path
       class="cls-11"
       d="m 168.26,286.87 c 6.13,-26.38 12.26,-52.76 18.39,-79.14"
       id="path15" />
    <path
       class="cls-10"
       d="m 238.26,154.75 c 18.09,9.07 36.17,18.13 54.26,27.2"
       id="path16" />
    <path
       class="cls-12"
       d="m 292.52,181.95 c -17.74,30.5 -35.49,60.99 -53.23,91.49"
       id="path17" />
    <g
       id="g25">
      <path
         class="cls-13"
         d="m 253.87,259.89 c 1.53,4.08 3.48,8.02 3.86,12.48 0.86,10.34 -6.48,18.75 -17.36,19.81 -8.97,0.87 -17.82,-6.84 -18.63,-16.41 -0.52,-6.19 -0.96,-12.38 -3.8,-18.05 -3.42,-6.84 -7.49,-13.39 -12.48,-19.09 -4.43,-5.05 -10.73,-7.67 -17.57,-8.51 -0.72,-0.09 -1.44,-0.21 -2.17,-0.31 -1.28,0.17 -2.55,0.07 -3.81,-0.18 -3.19,-1.19 -6.4,-2.32 -9.07,-4.56 -7.23,-6.09 -10.44,-13.7 -8.81,-23.13 0.62,-3.57 1.27,-7.14 1.99,-10.7 1.48,-7.31 -3.4,-20.93 -14.81,-23.69 -2.16,-0.52 -4.03,-0.16 -5.79,1.11 -3.42,2.48 -5.92,5.82 -8.35,9.19 -3.28,4.56 -5.81,9.54 -7.9,14.76 -5.66,14.11 -11.23,28.25 -16.69,42.43 -3.16,8.2 -4.95,16.82 -5.93,25.56 -0.31,2.76 0.82,3.58 3.51,2.65 3.76,-1.3 6.94,-3.67 10.2,-5.86 6.24,-4.18 11.61,-9.43 17.21,-14.38 6.91,-6.11 13.66,-12.38 20.66,-18.38 1.99,-1.7 2.6,-1.58 4.13,0.59 0.17,0.25 0.34,0.5 0.51,0.75 2.44,3.66 2.28,3.85 -1.04,6.87 -6.32,5.74 -12.79,11.31 -19.09,17.08 -4.07,3.72 -8.21,7.38 -12.12,11.26 -8.32,8.27 -15.12,17.68 -20.7,27.98 -0.51,0.94 -0.9,1.92 -1,2.99 -0.39,1.25 -0.14,2.64 -0.88,3.8 -2.51,13.84 -13.83,20.35 -23.76,19.92 -9.29,-0.4 -16.31,-4.84 -20.18,-13.35 -3.87,-8.52 -2.88,-16.74 2.98,-24.18 1.21,-1.53 2.65,-2.87 3.99,-4.3 1.05,-1.14 2.49,-1.73 3.68,-2.67 4.66,-2.72 8.11,-6.75 11.48,-10.81 1.69,-2.04 3.54,-3.93 5.33,-5.85 4.88,-5.23 8.34,-11.29 10.96,-17.84 6.5,-16.26 13.3,-32.41 18.92,-49.01 3.03,-8.94 4.05,-18.08 2.23,-27.43 -0.18,-2.08 -1.09,-3.88 -2.16,-5.63 -2.31,-4.06 -3.46,-8.42 -3.57,-13.08 0.52,-1.45 -0.29,-3.23 1.12,-4.45 3.22,-11.25 11.24,-17.93 22.59,-18.56 5.97,-0.34 11.22,1.84 15.94,5.38 1.62,0.93 2.8,2.34 3.99,3.73 4.85,6.41 6.06,13.65 4.28,21.29 -2.03,8.71 0.13,16.21 4.74,23.68 4.7,7.61 11.55,9.87 19.73,10.06 1.34,0.32 2.82,0.25 3.93,1.29 7.12,2.97 12.75,7.41 15.03,15.17 0.99,3.37 1.62,6.84 0.89,10.29 -2.72,12.71 0.55,23.87 8.37,33.96 1.48,1.91 2.76,3.96 4.15,5.93 0.43,0.61 0.85,1.29 1.43,1.74 5.66,4.43 8.2,3.05 10.07,-2.23 1.55,-4.4 2.27,-8.89 2.36,-13.51 0.31,-15.94 0.42,-31.89 0.24,-47.84 -0.04,-3.62 -1.26,-6.99 -2.71,-10.21 -1.91,-4.22 -6.15,-4.71 -9.87,-1.17 -3.07,2.92 -6.34,5.6 -9.45,8.46 -1.35,1.24 -2.09,0.98 -3.07,-0.25 -0.56,-0.7 -1.25,-1.3 -1.93,-1.89 -1.74,-1.52 -1.87,-2.49 -0.03,-3.77 8.57,-5.98 11.87,-14.69 12.98,-24.58 1.28,-11.35 11.69,-18.09 22.13,-14.36 6.38,2.28 11.97,9.32 9.91,19.1 -0.1,1.8 -0.5,3.52 -1.5,5.06 -4.8,9.4 -8.11,19.18 -8.09,29.89 0.03,11.79 0.22,23.58 -0.06,35.36 -0.22,9.53 2.14,18.22 6.85,26.38 0.6,1.44 1.67,2.67 1.96,4.25 z"
         id="path18" />
      <path
         class="cls-18"
         d="m 240.97,125.32 c -6.9,0.06 -12.69,-5.66 -12.78,-12.62 -0.09,-7.09 5.55,-12.8 12.69,-12.86 7.2,-0.05 12.79,5.42 12.89,12.61 0.1,6.97 -5.71,12.8 -12.8,12.86 z"
         id="path19" />
      <path
         class="cls-15"
         d="m 158.67,141.99 c 0,9.31 -7.54,16.91 -16.78,16.9 -10.02,0 -17.46,-7.59 -17.4,-17.74 0.05,-8.67 8.19,-16.28 17.37,-16.22 9.44,0.06 16.82,7.55 16.82,17.06 z"
         id="path20" />
      <path
         class="cls-22"
         d="m 186.49,223.09 c -9.25,0.12 -16.93,-7.35 -17.12,-16.65 -0.19,-9.35 7.48,-17.22 16.96,-17.39 9.28,-0.17 17.06,7.44 17.22,16.86 0.17,9.45 -7.39,17.06 -17.06,17.18 z"
         id="path21" />
      <path
         class="cls-17"
         d="m 85.77,275.98 c 9.69,-0.05 16.95,7.34 17,17.31 0.05,8.93 -7.78,16.68 -16.82,16.64 -9.53,-0.04 -17.16,-7.33 -17.21,-16.43 -0.05,-10 7.2,-17.47 17.02,-17.53 z"
         id="path22" />
      <path
         class="cls-19"
         d="m 251.28,273.37 c -0.02,6.66 -5.27,11.79 -12.03,11.75 -6.53,-0.04 -11.67,-5.31 -11.64,-11.92 0.04,-6.52 5.32,-11.7 11.93,-11.68 6.61,0.02 11.75,5.21 11.73,11.85 z"
         id="path23" />
      <path
         class="cls-9"
         d="m 238.7,167.09 c -6.3,-0.03 -11.07,-4.88 -11.05,-11.22 0.02,-6.14 5.12,-11.14 11.29,-11.09 6.12,0.05 11.09,5.12 11.08,11.32 0,6.2 -4.98,11.03 -11.32,11 z"
         id="path24" />
      <path
         class="cls-14"
         d="m 240.54,120.78 c -4.49,-0.03 -8.03,-3.57 -8.04,-8.06 0,-4.43 3.76,-8.08 8.35,-8.08 4.35,0 8.12,3.92 8.06,8.38 -0.06,4.31 -3.81,7.79 -8.37,7.76 z"
         id="path25" />
    </g>
    <circle
       class="cls-1"
       cx="292.51999"
       cy="181.95"
       r="11.78"
       id="circle25" />
    <circle
       class="cls-1"
       cx="48.59"
       cy="209.48"
       r="11.78"
       id="circle26" />
    <circle
       class="cls-21"
       cx="168.25999"
       cy="286.87"
       r="17.33"
       id="circle27" />
    <circle
       class="cls-9"
       cx="190.56"
       cy="93.870003"
       r="17.33"
       id="circle28" />
    <circle
       class="cls-9"
       cx="74.779999"
       cy="136.75"
       r="17.33"
       id="circle29" />
  </g>
</svg>
